<?xml version="1.0" encoding="UTF-8"?><svg xmlns="http://www.w3.org/2000/svg" xmlns:xlink="http://www.w3.org/1999/xlink" height="264.4" preserveAspectRatio="xMidYMid meet" version="1.0" viewBox="102.6 80.3 220.1 264.4" width="220.1" zoomAndPan="magnify"><g id="change1_1"><path d="M230.393,192.547h-81.504c-1.129,0-2.206-0.477-2.964-1.314s-1.127-1.955-1.017-3.079l10.267-104.073 c0.217-2.198,2.178-3.801,4.373-3.588l80.721,7.962c1.056,0.104,2.027,0.623,2.7,1.443s0.993,1.874,0.888,2.93l-9.483,96.111 C234.171,190.987,232.45,192.547,230.393,192.547z M153.302,184.547h73.466l8.734-88.523l-72.759-7.177L153.302,184.547z" fill="#002F42"/></g><g id="change2_1"><path d="M223.013,188.547l7.343-74.428c-6.685-0.66-11.738-6.559-11.162-12.995l-41.455-4.089 c-0.002,0.033,0,0.068-0.004,0.103c-0.638,6.476-6.779,11.329-13.5,10.665l-7.967,80.744H223.013z" fill="#54BEC7"/></g><g id="change1_2"><path d="M182.151,185.989c-1.206,0-2.347-0.543-3.106-1.48c-4.669-5.756-6.84-12.982-6.112-20.349 c1.418-14.371,13.363-25.208,27.785-25.208c0.92,0,1.853,0.046,2.773,0.137c3.495,0.345,6.851,1.33,9.974,2.926 c1.104,0.565,1.884,1.61,2.111,2.829c0.228,1.219-0.124,2.475-0.951,3.399c-2.077,2.322-21.687,26.713-28.131,34.728 l-1.225,1.524c-0.757,0.942-1.9,1.491-3.108,1.493C182.157,185.989,182.154,185.989,182.151,185.989z M200.718,146.953 c-10.29,0-18.812,7.736-19.824,17.994c-0.348,3.526,0.234,7.007,1.662,10.157c8.423-10.473,17.382-21.594,22.377-27.706 c-0.732-0.157-1.476-0.273-2.228-0.347C202.045,146.986,201.376,146.953,200.718,146.953z" fill="#002F42"/></g><g id="change1_3"><circle cx="168.649" cy="98.088" fill="#002F42" r="4.474"/></g><g id="change1_4"><circle cx="227.903" cy="103.934" fill="#002F42" r="4.474"/></g><g><g id="change1_6"><path d="M283.489,192.547H179.134c-1.542,0-2.946-0.886-3.61-2.278c-0.664-1.391-0.469-3.041,0.501-4.239 l76.418-94.404c1.389-1.718,3.908-1.983,5.625-0.592l63.045,51.033c0.825,0.667,1.35,1.635,1.461,2.69 c0.111,1.055-0.202,2.111-0.869,2.936l-35.108,43.371C285.839,192.002,284.696,192.547,283.489,192.547z M187.519,184.547 h94.063l31.391-38.778l-56.827-46L187.519,184.547z" fill="#002F42"/></g><g id="change2_3"><path d="M274.04,188.547l24.685-30.492c-5.221-4.227-6.198-11.933-2.179-16.992l-32.377-26.208 c-0.022,0.024-0.037,0.054-0.059,0.082c-4.096,5.059-11.892,5.735-17.141,1.484l-58.385,72.126H274.04z" fill="#54BEC7"/></g><g id="change1_7"><path d="M260.507,192.547h-44.914c-1.674,0-3.171-1.042-3.752-2.613c-3.406-9.212-1.688-19.672,4.482-27.297 c5.333-6.587,13.257-10.365,21.74-10.365c6.371,0,12.611,2.211,17.571,6.227c9.329,7.551,12.795,20.185,8.623,31.439 C263.676,191.506,262.18,192.547,260.507,192.547z M218.58,184.547h38.948c1.629-7.313-0.98-15.018-6.926-19.83 c-3.592-2.909-7.927-4.445-12.538-4.445c-6.058,0-11.715,2.697-15.521,7.399C218.712,172.402,217.287,178.667,218.58,184.547z" fill="#002F42"/></g><g id="change1_8"><circle cx="255.997" cy="110.735" fill="#002F42" r="4.473"/></g><g id="change1_9"><circle cx="302.277" cy="148.198" fill="#002F42" r="4.474"/></g></g><g id="change1_5"><path d="M283.161,344.727H119.694c-9.424,0-17.092-7.667-17.092-17.09V200.498 c0-9.424,7.667-17.091,17.092-17.091h163.467c9.423,0,17.09,7.667,17.09,17.091v127.139 C300.251,337.06,292.584,344.727,283.161,344.727z M119.694,191.407c-5.013,0-9.092,4.078-9.092,9.091v127.139 c0,5.012,4.079,9.09,9.092,9.09h163.467c5.012,0,9.09-4.078,9.09-9.09V200.498c0-5.013-4.078-9.091-9.09-9.091H119.694z" fill="#002F42"/></g><g id="change2_2"><path d="M294.959,231.622h-70.053c-7.229,0-13.089,5.86-13.089,13.09v38.708c0,7.229,5.86,13.091,13.089,13.091 h70.053c7.229,0,13.091-5.861,13.091-13.091v-38.708C308.05,237.482,302.188,231.622,294.959,231.622z M235.776,276.252 c-6.664,0-12.226-5.562-12.226-12.227c0-6.664,5.562-12.226,12.226-12.226c6.666,0,12.228,5.562,12.228,12.226 C248.004,270.69,242.442,276.252,235.776,276.252z" fill="#54BEC7"/></g></svg>