<?xml version="1.0" standalone="no"?>
<!DOCTYPE svg PUBLIC "-//W3C//DTD SVG 20010904//EN"
 "http://www.w3.org/TR/2001/REC-SVG-20010904/DTD/svg10.dtd">
<svg version="1.0" xmlns="http://www.w3.org/2000/svg"
 width="300.000000pt" height="274.000000pt" viewBox="0 0 300.000000 274.000000"
 preserveAspectRatio="xMidYMid meet">
<metadata>
Created by potrace 1.10, written by Peter Selinger 2001-2011
</metadata>
<g transform="translate(0.000000,274.000000) scale(0.100000,-0.100000)"
fill="#000000" stroke="none">
<path d="M140 2673 c0 -38 5 -97 10 -132 6 -35 9 -65 7 -68 -3 -2 -37 7 -78
22 -40 14 -75 23 -77 20 -3 -2 4 -8 14 -11 10 -4 35 -13 54 -21 38 -15 210
-60 249 -65 23 -3 20 -6 -27 -38 -28 -19 -52 -37 -52 -40 0 -3 33 -4 74 -2 94
5 124 -9 225 -102 79 -73 98 -96 63 -77 -38 20 -60 11 -146 -59 -81 -67 -214
-215 -203 -226 3 -3 32 0 64 6 32 7 85 12 117 11 69 -1 260 -57 250 -72 -3 -6
-13 -8 -21 -4 -9 3 -39 -8 -68 -24 l-52 -29 -17 29 c-14 24 -117 89 -141 89
-3 0 -5 -12 -5 -27 0 -21 -3 -24 -12 -15 -18 18 -88 16 -88 -3 0 -9 -9 -15
-25 -15 -14 0 -25 4 -25 9 0 5 10 7 23 4 20 -4 21 -4 3 8 -11 7 -37 9 -66 6
-38 -5 -51 -2 -64 12 -25 28 -20 83 10 112 23 22 34 24 106 23 l80 -1 -7 35
c-10 52 -70 166 -113 214 -20 23 -57 50 -82 61 -25 11 -48 25 -53 31 -5 8 -9
8 -15 0 -4 -7 -18 -14 -32 -17 -18 -3 -13 -5 15 -6 57 -2 114 -31 161 -83 41
-44 95 -145 108 -201 11 -46 -14 -28 -34 25 -22 58 -81 156 -112 185 -30 29
-89 53 -128 53 -45 0 -36 -14 17 -28 59 -16 99 -58 146 -155 40 -83 44 -97 23
-97 -7 0 -21 21 -31 48 -26 70 -74 138 -116 161 -46 26 -72 27 -67 4 2 -11 11
-17 21 -15 25 4 59 -17 53 -33 -3 -8 -1 -17 4 -20 6 -4 10 -14 10 -23 -1 -15
-2 -15 -15 2 -13 18 -15 18 -15 3 0 -10 11 -22 25 -27 16 -6 23 -14 19 -25 -3
-8 -8 -15 -11 -15 -3 0 -3 7 1 15 3 8 1 15 -4 15 -16 0 -21 -19 -10 -40 9 -16
8 -24 -5 -36 -8 -8 -15 -21 -15 -27 0 -8 -3 -8 -11 0 -8 8 -7 16 2 31 10 17
10 23 0 36 -23 27 -51 20 -51 -12 0 -15 5 -33 11 -39 8 -8 8 -13 0 -17 -8 -5
-8 -13 0 -27 10 -19 12 -19 34 -5 14 9 34 16 46 16 20 0 21 -2 7 -17 -8 -10
-14 -35 -13 -55 1 -38 -11 -48 -31 -28 -16 16 -47 -24 -51 -65 -3 -30 -1 -35
17 -35 12 0 32 -11 45 -24 13 -13 26 -21 29 -18 9 9 7 -5 -6 -33 -12 -27 -38
-34 -38 -10 0 8 5 15 11 15 5 0 7 -5 3 -12 -4 -7 -3 -8 4 -4 7 4 12 12 12 17
0 16 -48 59 -66 59 -15 0 -15 -3 4 -20 27 -25 29 -74 4 -92 -25 -18 -26 -58
-1 -58 10 0 19 -5 19 -11 0 -6 -9 -9 -20 -6 -11 3 -20 1 -20 -4 0 -5 13 -9 30
-9 27 0 30 3 30 29 0 17 5 33 10 36 7 4 8 -5 4 -27 -3 -18 -7 -38 -8 -45 -1
-7 -6 -16 -11 -20 -4 -4 -5 -3 -2 3 4 7 -5 9 -24 6 -42 -6 -29 -13 33 -18 84
-7 79 6 76 -186 l-3 -173 -68 -3 c-46 -2 -67 -7 -67 -16 0 -9 19 -12 75 -11
42 2 79 5 82 9 4 3 35 6 70 6 60 0 63 -1 63 -25 0 -18 -5 -24 -17 -23 -36 5
-193 -24 -203 -38 -7 -8 -22 -11 -39 -8 -21 4 -28 2 -28 -10 0 -11 11 -15 41
-15 23 0 87 -3 143 -8 l102 -8 24 -36 c23 -35 40 -109 30 -135 -2 -7 -11 -10
-20 -7 -18 7 -323 -18 -323 -27 0 -5 46 -2 249 16 80 7 84 6 77 -12 -4 -10
-14 -45 -23 -76 -15 -55 -15 -60 3 -100 10 -23 29 -57 41 -76 19 -27 21 -36
11 -52 -11 -16 -10 -25 5 -47 35 -54 51 -99 50 -141 -1 -40 1 -43 28 -49 35
-7 36 -13 5 -46 -13 -14 -23 -27 -21 -29 2 -2 -10 -4 -26 -5 -16 -1 -37 -9
-45 -18 -14 -13 -13 -15 5 -15 11 0 23 4 26 10 3 5 14 10 23 10 14 -1 14 -2
-3 -12 -11 -6 -28 -20 -38 -32 -16 -20 -17 -20 -11 -1 4 11 4 17 -1 13 -4 -4
-14 -3 -22 3 -8 8 -13 8 -13 1 0 -6 6 -12 12 -14 7 -3 0 -13 -17 -24 -40 -26
-136 -25 -167 2 -12 10 -18 13 -14 7 9 -16 7 -16 -71 1 -35 7 -63 10 -63 6 0
-4 57 -18 128 -32 l127 -25 -35 -16 c-19 -8 -46 -28 -60 -42 -23 -26 -23 -27
-3 -16 27 14 36 14 28 1 -3 -5 -1 -10 4 -10 14 0 14 13 -1 28 -9 9 -5 12 21
12 18 0 30 4 27 9 -8 12 18 32 43 34 11 1 23 7 25 14 3 7 16 13 28 13 23 -1
23 -1 3 -13 -40 -23 -124 -91 -120 -95 2 -3 12 1 20 8 12 10 21 10 40 2 29
-13 33 -5 8 15 -16 12 -13 13 26 7 31 -4 42 -3 37 5 -4 6 -14 11 -22 11 -18 0
-18 14 1 30 9 7 33 10 65 7 42 -4 49 -2 39 9 -7 8 -21 11 -34 8 -13 -3 -26 0
-31 7 -5 9 -2 11 9 6 18 -7 47 17 47 38 0 9 17 16 45 20 24 4 43 11 42 15 -1
4 20 25 46 45 27 20 46 39 44 42 -3 2 -31 -16 -64 -40 -32 -25 -69 -48 -82
-52 l-23 -7 18 32 c25 43 55 65 121 90 39 14 59 18 68 10 7 -5 47 -15 90 -20
72 -9 100 -23 106 -52 5 -25 8 -83 8 -155 0 -73 3 -83 18 -83 21 0 55 20 36
20 -7 0 -13 4 -13 9 0 6 12 6 30 0 17 -6 30 -15 30 -20 0 -5 3 -9 8 -9 4 0 7
25 8 56 1 50 -1 54 -13 38 -7 -10 -13 -28 -13 -41 0 -23 0 -23 -37 -6 -21 10
-39 18 -40 18 -1 1 3 19 10 41 l12 39 5 -35 c4 -25 11 -36 25 -38 18 -2 18 -2
3 8 -12 7 -18 23 -18 46 0 32 -2 35 -21 29 -20 -7 -22 -5 -17 32 3 22 1 47 -4
56 -7 13 -5 17 7 17 8 0 15 -4 15 -10 0 -5 10 -10 23 -9 21 0 21 1 2 9 -18 8
-17 9 7 9 14 1 28 -4 30 -11 3 -8 9 -8 24 1 14 10 15 11 2 7 -20 -6 -35 10
-16 17 7 2 -17 2 -53 0 -52 -4 -67 -2 -72 10 -4 12 6 13 61 10 37 -3 93 -1
124 5 40 6 61 5 70 -2 8 -7 8 -5 -1 7 -12 15 -10 17 30 18 l44 2 -40 6 c-22 4
-44 4 -50 0 -13 -8 -133 -21 -196 -21 -27 1 -51 -3 -54 -8 -3 -5 -16 -5 -30 2
-13 6 -23 14 -21 17 2 3 -37 5 -88 5 -69 -1 -104 -7 -139 -22 -36 -16 -47 -17
-51 -7 -10 27 136 75 227 75 57 0 58 -1 73 -36 8 -20 18 -34 20 -31 3 3 1 14
-4 24 -8 15 -6 22 9 32 14 8 17 16 11 24 -8 10 -21 112 -26 197 -1 14 -5 31
-10 39 -5 8 -8 42 -7 75 2 51 -3 71 -29 121 -40 79 -44 105 -24 165 l16 50
119 2 c66 1 129 2 141 2 12 1 23 -5 25 -11 4 -10 -20 -13 -94 -14 -54 0 -120
-5 -148 -9 -32 -6 1 -7 95 -3 80 3 147 5 150 6 3 0 13 -3 23 -8 9 -4 58 0 107
8 122 20 136 15 235 -94 76 -84 79 -90 76 -131 -3 -39 -37 -187 -45 -195 -1
-2 -27 2 -57 8 l-54 12 48 12 c26 7 51 16 55 20 4 5 -1 5 -10 2 -9 -3 -43 -11
-75 -18 -52 -10 -83 -8 -297 25 -131 20 -241 34 -244 32 -7 -7 25 -13 218 -41
258 -37 250 -34 150 -61 -47 -13 -96 -23 -110 -24 -15 0 -30 -4 -35 -9 -6 -4
-53 -19 -105 -31 -52 -13 -90 -25 -84 -27 6 -2 112 22 235 53 222 56 224 56
292 44 74 -13 70 -7 51 -76 -5 -19 -1 -20 58 -20 35 0 74 -6 86 -13 13 -7 25
-11 27 -9 2 2 0 53 -3 114 l-7 111 27 -29 c14 -15 30 -28 35 -28 15 0 4 -77
-22 -156 -14 -41 -25 -80 -25 -87 0 -17 107 -99 115 -88 5 10 134 28 166 24 9
-1 16 4 16 12 0 8 -5 15 -11 15 -6 0 -3 5 7 11 9 5 21 8 25 5 4 -2 14 0 22 5
11 8 3 9 -27 5 -47 -7 -76 1 -66 18 3 6 3 8 -2 4 -17 -16 -107 77 -90 93 2 3
5 28 6 57 2 28 3 52 5 52 1 0 18 -7 38 -15 20 -9 47 -13 61 -10 14 3 36 7 50
10 24 5 25 4 25 -47 -1 -31 -7 -61 -15 -72 -19 -25 -21 -66 -3 -48 7 7 20 12
30 12 11 0 18 7 18 20 0 10 8 24 18 29 13 7 19 23 20 52 3 58 12 63 12 6 0
-34 -6 -53 -20 -67 -11 -11 -20 -24 -20 -29 0 -11 74 -26 109 -22 15 2 21 -1
16 -8 -4 -7 -38 -10 -95 -8 -49 2 -94 0 -102 -4 -8 -5 7 -9 40 -9 31 0 52 -4
52 -11 0 -6 7 -8 17 -5 9 4 20 1 24 -6 7 -10 11 -10 21 0 6 6 20 12 30 12 10
0 18 5 18 10 0 6 8 10 18 11 9 0 12 3 6 5 -8 3 -5 17 8 43 11 22 21 71 25 118
5 69 9 83 27 93 17 8 30 7 58 -5 21 -8 55 -15 77 -15 l39 0 21 -69 c13 -44 19
-80 14 -101 -6 -31 -8 -32 -42 -26 -20 3 -45 6 -56 6 -14 0 -5 10 29 31 51 32
59 50 11 25 -16 -8 -32 -13 -36 -11 -4 3 -9 -5 -12 -16 -5 -20 -11 -21 -74
-16 l-68 6 50 -13 50 -12 -30 -15 c-16 -9 -38 -14 -48 -13 -14 2 -14 1 -1 -3
25 -8 -44 -47 -81 -46 -28 1 -29 1 -5 -6 l25 -7 -23 -13 c-12 -6 -48 -11 -82
-9 -33 2 -58 -1 -57 -6 1 -5 25 -9 52 -7 37 1 46 -1 35 -8 -8 -6 -37 -11 -64
-11 -76 0 -50 -8 44 -13 47 -3 69 -2 50 2 l-35 6 29 20 c25 17 30 17 40 4 8
-11 19 -13 39 -8 15 4 61 10 102 14 42 4 78 12 81 17 4 6 -7 7 -28 4 -18 -3
-40 -1 -48 4 -14 9 12 12 128 13 23 1 31 5 28 14 -3 7 1 13 10 13 8 0 12 -4 9
-10 -4 -6 12 -10 39 -10 25 0 46 -4 46 -10 0 -5 5 -10 11 -10 5 0 8 4 4 9 -3
5 5 12 17 14 23 4 -13 9 -69 10 -12 0 -20 4 -17 8 6 10 202 1 221 -10 8 -4
-25 -48 -93 -126 -58 -66 -109 -124 -114 -129 -5 -5 -71 3 -152 18 -79 15
-188 35 -243 46 -59 10 -86 18 -65 19 32 1 81 20 53 21 -6 0 -20 3 -30 6 -13
4 -14 3 -5 -4 10 -6 0 -11 -34 -16 -26 -3 -56 -6 -68 -6 -20 1 -20 1 -3 15 11
8 34 12 55 10 34 -4 35 -4 7 4 -24 6 -27 9 -13 15 9 4 22 5 27 1 6 -3 8 0 5 8
-3 8 -17 14 -32 13 -15 0 -70 3 -122 6 -73 5 -82 5 -40 -2 30 -5 74 -10 98
-11 50 -3 53 -13 12 -34 -25 -13 -40 -14 -93 -5 -43 8 -70 8 -87 1 -23 -10
-22 -11 12 -9 20 1 40 -1 44 -5 4 -4 -13 -8 -37 -9 l-44 -1 38 -4 c21 -3 44 0
51 6 8 6 23 7 42 2 16 -5 21 -10 12 -10 -10 -1 -18 -5 -18 -11 0 -14 12 -13
35 4 18 12 33 11 115 -4 73 -14 85 -18 53 -19 -23 -1 -44 -5 -47 -9 -3 -5 18
-5 47 -1 29 4 63 7 77 7 23 0 23 -1 -5 -9 -26 -7 -25 -8 10 -4 32 4 312 -39
323 -50 1 -1 -18 -25 -44 -54 -25 -28 -42 -51 -37 -51 5 0 30 24 56 54 l46 54
68 -13 c133 -26 239 -44 321 -57 59 -9 81 -16 78 -25 -3 -7 -1 -13 4 -13 6 0
10 5 10 11 0 7 15 9 43 4 30 -4 38 -3 27 4 -8 6 -25 11 -37 11 -13 0 -23 3
-23 8 0 4 16 49 35 101 20 51 34 98 33 102 -2 5 -21 -37 -42 -93 -21 -57 -40
-105 -42 -107 -3 -3 -456 70 -463 75 -2 2 32 42 74 89 49 53 86 85 99 86 17 0
18 2 4 7 -14 6 -12 12 18 44 l34 38 132 -20 c73 -11 147 -23 163 -26 20 -4 27
-3 20 4 -5 5 -62 17 -125 26 -63 10 -130 20 -147 23 l-33 5 52 60 c43 48 56
58 75 53 13 -3 23 -1 23 4 0 5 -7 11 -15 13 -14 3 -14 5 -1 24 14 20 18 20 95
9 45 -6 81 -8 81 -4 0 4 -26 10 -57 14 -90 10 -90 9 -36 74 34 42 55 60 73 61
21 1 22 3 7 9 -17 6 -17 8 -3 20 9 7 16 19 16 25 0 6 -9 -1 -20 -15 l-19 -25
-103 13 c-108 13 -297 26 -218 15 l45 -7 -38 -24 c-21 -13 -36 -25 -33 -28 2
-2 22 7 44 22 l40 26 108 -11 c60 -7 115 -14 122 -16 14 -4 6 -18 -57 -90
l-32 -36 -82 11 c-45 7 -95 14 -111 17 -18 4 -26 2 -22 -4 3 -5 51 -15 105
-22 l100 -13 -77 -86 c-42 -47 -82 -86 -89 -85 -7 0 -24 1 -38 2 -14 1 -25 6
-25 11 0 5 9 7 20 4 14 -4 20 0 20 11 0 10 8 16 22 16 21 0 21 0 2 19 -10 10
-20 14 -22 10 -2 -5 -10 -9 -19 -9 -8 0 -23 -10 -33 -23 -16 -20 -28 -22 -112
-24 -51 0 -81 1 -66 4 18 3 25 9 22 18 -3 7 2 29 11 48 14 31 15 42 2 102
l-13 67 -50 19 c-33 13 -61 17 -86 13 -20 -3 -47 -3 -58 1 -20 6 -21 7 -3 21
10 7 36 13 58 13 35 -1 37 -2 15 -9 l-25 -8 25 -1 c33 -1 73 27 66 46 -3 8 -2
11 3 8 21 -12 32 45 31 154 0 64 0 64 20 46 14 -13 20 -31 20 -62 0 -23 -3
-43 -7 -43 -5 0 -13 -11 -20 -25 -6 -14 -7 -23 -2 -19 16 9 10 -10 -16 -51
-30 -49 -31 -62 -4 -70 33 -11 59 -43 59 -74 0 -15 5 -42 11 -60 9 -25 8 -38
-5 -65 -27 -57 -23 -64 37 -59 72 6 76 8 89 45 10 28 12 29 19 12 13 -35 8 76
-7 145 -7 36 -14 99 -14 139 0 84 -19 138 -52 151 -17 7 -3 9 50 9 58 -1 72
-4 68 -15 -4 -10 -1 -11 12 -5 9 5 40 9 67 10 l50 2 -60 -26 c-38 -16 -73 -24
-97 -22 -20 2 -34 0 -32 -4 3 -5 13 -8 22 -9 14 0 14 -2 -3 -10 -16 -7 -13 -8
10 -3 43 9 41 9 138 0 l88 -8 -66 -40 c-37 -22 -64 -42 -62 -45 3 -2 35 14 72
38 66 41 67 42 138 36 42 -4 64 -3 52 2 -11 5 -84 14 -163 22 l-143 13 57 23
c37 16 66 22 84 18 18 -4 33 -1 43 9 16 17 59 20 90 7 16 -6 13 -10 -20 -26
-37 -20 -56 -36 -48 -43 6 -6 115 67 115 78 0 6 -28 10 -65 10 -46 0 -65 4
-65 13 0 7 -11 29 -25 50 -20 28 -32 37 -54 37 -34 0 -44 -19 -35 -65 l6 -32
-138 -1 c-85 0 -143 3 -151 10 -7 6 -13 26 -13 45 0 31 -4 36 -41 51 -30 13
-42 24 -46 45 -3 15 -21 42 -39 60 -23 21 -34 41 -34 59 0 16 -7 31 -17 37
-15 7 -17 20 -15 80 5 92 22 93 22 1 0 -45 4 -70 11 -70 8 0 10 21 7 65 -3 48
-1 65 9 65 9 0 13 -30 16 -112 l3 -113 2 113 c2 92 5 112 17 112 13 0 15 -21
15 -129 0 -72 3 -132 8 -134 4 -3 6 55 4 129 -3 129 -2 134 17 134 20 0 21 -5
21 -140 0 -138 0 -140 -22 -140 -16 0 -19 -3 -11 -11 7 -7 103 -13 265 -16
242 -6 365 0 340 16 -17 10 -30 291 -14 291 8 0 12 -37 15 -107 l3 -108 2 116
2 116 -47 -8 c-68 -11 -426 -10 -563 1 -63 5 -135 16 -160 25 l-45 15 45 -6
c294 -37 754 -29 768 14 2 6 -3 12 -12 12 -8 0 -27 18 -43 40 -32 45 -63 64
-36 22 10 -15 21 -30 26 -33 5 -4 4 -10 -2 -13 -6 -4 -11 -2 -11 5 0 8 -5 7
-17 -2 -16 -13 -17 -12 -4 4 15 19 4 39 -32 58 -22 12 -67 4 -67 -12 0 -27 34
-80 49 -77 9 1 22 -1 29 -6 16 -10 65 1 57 14 -3 5 -1 11 4 15 5 3 13 -1 18
-8 4 -8 15 -16 23 -19 24 -8 -97 -20 -129 -13 -16 3 -33 16 -38 27 -8 19 -10
20 -16 4 -4 -9 -3 -15 1 -13 4 2 15 -4 25 -15 16 -17 12 -18 -155 -17 -160 1
-407 14 -347 17 15 1 32 9 39 17 10 12 15 13 20 4 4 -6 13 -8 19 -5 17 11 13
26 -6 27 -11 0 -13 3 -6 6 7 2 13 10 13 16 -1 7 -13 -2 -28 -19 -22 -26 -37
-33 -82 -38 -38 -5 -50 -4 -40 3 8 5 17 8 21 6 3 -3 14 4 24 14 13 16 14 19 2
17 -8 -1 -22 -8 -30 -14 -9 -8 -18 -9 -21 -4 -13 21 31 36 139 47 41 4 46 3
35 -10 -7 -8 -8 -15 -2 -15 12 0 38 30 26 30 -5 1 7 9 26 20 27 15 59 20 145
22 l110 2 -100 6 c-84 5 -68 6 96 8 154 2 199 -1 208 -11 6 -8 9 -16 6 -19 -3
-2 11 -20 30 -38 24 -24 35 -29 35 -18 0 9 -11 23 -25 32 -14 9 -25 21 -25 27
0 7 10 5 25 -5 14 -9 25 -12 25 -7 0 6 -20 19 -45 30 -45 20 -45 20 -45 70 l0
51 45 0 c25 0 45 4 45 10 0 6 -18 7 -47 3 l-46 -6 6 33 c4 18 7 36 7 40 0 11
57 33 67 27 5 -3 10 6 11 19 l2 25 -22 -21 c-12 -11 -27 -20 -34 -20 -7 0 -19
-3 -28 -6 -24 -9 -20 29 4 44 18 11 37 44 46 77 1 6 5 18 9 28 6 13 3 16 -9
11 -16 -6 -20 -17 -17 -43 2 -8 -2 -10 -10 -5 -7 4 -10 3 -6 -3 4 -6 0 -16 -8
-23 -8 -7 -15 -19 -15 -26 0 -8 -5 -14 -10 -14 -6 0 -8 12 -5 28 5 25 5 25 -4
5 -6 -13 -16 -23 -22 -23 -7 0 -9 -3 -6 -7 9 -9 -12 -33 -29 -33 -8 0 -11 6
-8 15 4 8 10 12 15 9 5 -3 9 0 9 5 0 6 -6 11 -14 11 -8 0 -18 9 -21 20 -4 11
-11 18 -16 15 -12 -8 -11 9 2 22 7 7 7 22 1 44 -8 34 -8 34 -16 -21 -5 -30 -8
-67 -8 -82 1 -25 -2 -28 -33 -28 -27 0 -35 4 -35 18 0 10 -7 27 -15 38 -17 23
-19 15 -4 -23 5 -15 7 -24 3 -20 -4 4 -13 2 -21 -5 -11 -9 -15 -7 -20 10 -3
12 -9 22 -14 22 -5 0 -6 -6 -3 -14 3 -9 -4 -15 -20 -18 -21 -4 -27 0 -36 26
-17 53 -60 94 -115 109 l-50 14 70 7 c39 4 91 9 117 12 39 4 47 2 42 -10 -3
-8 -1 -17 5 -21 7 -3 11 3 11 15 0 12 4 18 11 15 6 -4 8 -14 5 -22 -4 -9 -2
-11 6 -7 7 5 9 2 6 -7 -3 -8 -1 -23 3 -34 6 -14 8 -6 6 28 -1 26 1 47 5 47 5
0 9 -10 9 -22 1 -19 2 -20 6 -4 5 17 12 18 96 12 97 -7 154 -14 175 -21 6 -2
12 0 12 5 0 6 -3 10 -7 11 -5 0 -17 3 -28 6 -11 3 -32 5 -47 4 -16 0 -28 3
-28 7 0 4 -35 7 -77 8 -43 0 -121 1 -173 2 -95 2 -106 1 -190 -14 -25 -4 -58
-8 -73 -7 -44 0 -19 -12 62 -33 63 -16 77 -23 97 -54 50 -72 80 -233 51 -268
-19 -24 -87 -63 -97 -57 -6 3 -15 15 -21 27 -7 13 -7 18 -1 14 12 -7 62 13 62
24 0 10 -20 25 -42 33 -10 4 -18 2 -18 -3 0 -6 8 -10 18 -10 14 0 15 -2 2 -10
-13 -9 -13 -10 0 -10 13 0 13 -2 1 -9 -8 -5 -20 -7 -27 -4 -14 5 -46 -36 -37
-50 3 -6 1 -7 -5 -3 -19 11 -14 42 12 73 35 42 21 60 -16 21 -17 -18 -37 -43
-45 -55 -9 -13 -19 -20 -24 -17 -5 3 -16 -2 -25 -10 -8 -9 -11 -16 -6 -16 5 0
12 3 16 7 15 15 39 11 43 -8 5 -16 8 -17 21 -7 13 11 14 11 8 0 -7 -11 -4 -12
12 -3 11 6 33 11 49 11 l28 -1 -30 -17 c-21 -12 -53 -17 -110 -17 -74 0 -85 3
-152 39 -40 22 -70 43 -67 47 6 10 -38 5 -56 -6 -10 -6 -12 -4 -7 10 22 55 40
183 40 280 1 100 -11 181 -48 328 l-7 27 93 0 c52 0 100 -4 108 -9 18 -11 40
-141 40 -237 1 -71 -17 -142 -54 -215 -10 -19 -18 -35 -20 -36 -1 -2 -20 6
-43 17 -50 24 -70 26 -52 5 7 -8 16 -12 21 -9 5 3 9 0 9 -6 0 -6 4 -9 9 -6 13
9 41 -4 41 -18 0 -7 -25 -34 -56 -60 -59 -52 -68 -76 -11 -30 19 15 47 28 62
30 l27 3 -26 -24 c-14 -13 -26 -30 -26 -37 0 -7 12 2 26 20 14 18 49 44 76 58
48 24 54 25 117 14 88 -15 118 -28 141 -58 22 -27 35 -26 24 2 -10 25 -72 53
-147 66 -46 8 -67 17 -70 28 -4 15 -5 15 -6 1 0 -9 -12 -21 -26 -27 -40 -18
-42 -14 -8 17 27 24 32 38 38 93 4 36 5 91 2 122 -4 36 -2 58 5 62 8 5 9 1 5
-10 -6 -15 -3 -17 15 -13 91 23 190 29 378 24 113 -3 216 -9 230 -12 22 -6 23
-5 7 5 -10 7 -79 14 -155 17 -84 3 -140 10 -144 17 -6 8 -8 7 -8 -1 0 -19 -37
-16 -44 3 -5 14 -7 14 -22 0 -22 -22 -33 -20 -28 7 l5 22 -10 -22 c-8 -18 -19
-23 -50 -23 -22 0 -45 -2 -53 -5 -8 -3 -18 6 -24 24 -10 25 -9 32 10 51 l21
21 -27 -3 c-15 -2 -36 -12 -47 -22 -12 -11 -21 -15 -21 -11 0 4 -9 0 -20 -10
-11 -10 -18 -20 -16 -24 2 -3 -2 -14 -9 -24 -11 -16 -13 -14 -18 15 -6 39 22
74 81 104 20 11 48 31 62 45 36 37 119 53 246 46 104 -5 160 -23 166 -52 2 -9
29 -27 61 -40 35 -14 53 -18 47 -10 -7 8 -28 19 -48 26 -61 19 -60 29 1 29 44
0 57 3 57 15 0 10 -10 15 -26 15 -26 0 -27 1 -20 46 3 26 6 80 6 120 0 67 2
74 20 74 11 0 20 6 20 14 0 10 -15 12 -70 8 l-70 -5 0 111 c0 73 4 113 11 118
9 5 10 -1 5 -21 l-7 -27 58 7 c58 7 91 23 66 32 -7 3 -13 11 -13 19 0 8 -5 14
-11 14 -6 0 -8 -8 -4 -19 5 -15 -1 -20 -31 -25 -41 -8 -44 -6 -47 23 -1 19 -3
19 -23 6 -20 -13 -27 -13 -58 0 -19 8 -46 15 -58 14 -19 -1 -18 -2 7 -9 47
-12 88 -30 82 -36 -3 -3 -14 -1 -25 5 -12 6 -31 11 -44 10 -14 0 -5 -6 24 -15
26 -8 50 -20 54 -26 5 -8 2 -9 -12 -4 -45 19 -97 27 -108 16 -7 -7 3 -10 33
-10 44 0 81 -14 81 -30 0 -6 -10 -6 -26 0 -14 6 -35 10 -47 9 -12 0 -1 -7 26
-15 26 -8 47 -21 47 -28 0 -11 -6 -11 -37 0 -38 13 -81 19 -71 9 3 -4 27 -11
54 -18 26 -7 49 -18 52 -25 3 -9 -3 -10 -24 -2 -15 6 -29 8 -32 6 -3 -3 3 -8
12 -11 9 -3 23 -7 31 -10 34 -10 11 -22 -37 -19 -55 3 -50 0 15 -11 59 -9 45
-27 -15 -19 -29 4 -50 3 -45 -1 4 -5 24 -10 45 -12 36 -4 61 -17 50 -28 -3 -3
-17 -1 -32 5 -35 13 -66 13 -66 0 0 -5 15 -10 34 -10 39 0 66 -8 66 -20 0 -5
-26 -7 -57 -5 -55 4 -49 1 25 -11 54 -8 36 -23 -25 -19 -55 4 -49 1 25 -11 19
-3 32 -11 32 -19 0 -11 -6 -12 -26 -5 -24 10 -92 14 -83 6 2 -2 24 -7 48 -10
72 -10 77 -29 6 -22 l-60 5 52 -12 c77 -18 75 -27 -3 -20 -38 3 -66 2 -61 -3
4 -4 20 -8 35 -9 75 -3 92 -6 92 -14 0 -4 -33 -7 -72 -5 l-73 3 64 -9 c35 -5
69 -14 75 -21 8 -9 2 -10 -24 -6 -115 20 -216 17 -297 -9 -16 -5 -16 -4 -1 5
9 6 40 17 70 25 34 10 44 15 27 15 -15 1 -45 -6 -68 -14 -22 -8 -41 -10 -41
-5 0 11 98 40 134 40 14 0 26 4 26 9 0 9 -76 -2 -124 -19 -36 -12 -36 -12 -36
-1 0 10 77 35 145 48 29 5 34 8 17 11 -19 3 -96 -15 -147 -34 -8 -3 -15 -1
-15 4 0 14 98 42 143 42 20 0 39 5 42 10 3 6 0 10 -7 10 -19 0 -139 -27 -163
-36 -17 -7 -18 -6 -7 8 12 15 40 25 137 48 40 9 40 9 -8 4 -27 -3 -67 -12 -89
-20 -23 -8 -43 -12 -46 -9 -9 9 72 37 125 42 29 3 53 9 53 14 0 10 -58 2 -124
-17 -60 -17 -63 -17 -48 -2 6 6 42 19 79 29 37 9 59 18 47 18 -11 1 -43 -6
-70 -14 -57 -17 -67 -18 -59 -6 3 5 30 15 61 22 30 7 57 16 60 21 7 10 4 10
-32 -1 -67 -21 -80 -21 -81 0 -1 15 10 25 43 40 25 10 55 19 67 20 12 0 31 5
42 10 39 18 -68 -1 -112 -21 -24 -10 -43 -15 -43 -11 0 15 46 40 101 55 32 8
44 14 29 15 -22 0 -58 -10 -112 -34 -10 -4 -18 -3 -18 2 0 11 56 37 110 52 25
6 28 9 13 10 -13 1 -46 -8 -73 -18 -33 -13 -50 -15 -47 -8 5 16 46 35 107 50
27 6 50 15 50 19 0 5 -1 8 -2 8 -4 0 -118 -36 -143 -45 -18 -6 -18 -5 3 14 12
11 48 25 80 32 50 11 93 29 66 29 -24 0 -118 -30 -140 -44 -13 -9 -24 -12 -24
-7 0 16 31 34 93 53 57 17 58 18 17 13 -25 -3 -60 -15 -77 -25 l-33 -19 4 21
c1 12 9 24 17 26 11 3 11 1 -1 -7 -21 -15 -8 -14 31 4 l34 14 -41 -3 c-23 -2
-46 -6 -52 -10 -7 -4 -22 -1 -34 5 -21 11 -22 11 -9 -4 7 -10 20 -17 27 -17 8
0 14 -7 14 -15 0 -9 -9 -15 -22 -15 -19 0 -20 2 -8 11 11 8 -1 9 -45 6 -33 -3
-51 -2 -40 1 11 4 21 16 23 27 2 18 1 19 -11 3 -7 -9 -26 -20 -43 -23 -23 -5
-26 -4 -14 5 12 9 8 10 -20 6 -19 -3 -48 -1 -65 4 -26 8 -25 9 13 4 23 -3 42
-2 42 3 0 4 -37 8 -83 9 l-82 1 60 -17 c59 -16 60 -17 58 -51 l-2 -34 10 34
c9 29 13 32 37 27 15 -3 64 -11 108 -17 l82 -13 -6 -85 c-2 -47 -6 -88 -8 -90
-3 -3 -64 3 -137 13 -72 10 -160 21 -194 25 -44 4 -67 12 -79 26 -11 14 -14
15 -11 4 4 -13 -8 -15 -91 -14 -167 2 -347 -23 -448 -62 -12 -4 -15 -3 -10 5
5 8 2 10 -8 6 -9 -3 -16 -11 -16 -16 0 -5 -23 11 -51 36 -28 25 -56 46 -63 46
-7 0 -11 25 -11 75 0 46 4 74 10 72 6 -3 27 -10 48 -18 34 -12 37 -16 37 -51
0 -43 20 -142 27 -134 3 2 -1 39 -8 80 -6 42 -10 79 -7 81 2 3 26 -2 51 -11
l47 -16 0 -49 c0 -27 4 -49 10 -49 5 0 7 21 3 52 -4 30 -2 49 3 46 5 -3 28
-11 52 -17 67 -18 57 -42 -33 -81 -42 -18 -74 -35 -72 -37 2 -2 24 5 48 15 24
11 79 31 122 47 73 26 79 26 110 12 18 -9 54 -15 80 -14 47 2 47 2 20 13 -55
22 -76 27 -69 15 4 -6 17 -11 29 -12 12 0 16 -3 10 -6 -7 -2 -30 1 -50 8 l-38
12 50 14 c28 7 64 13 82 13 17 0 35 5 38 11 9 13 -65 4 -142 -17 -47 -13 -59
-12 -136 6 -47 11 -151 43 -232 71 -81 27 -152 48 -158 46 -7 -2 2 -7 20 -11
30 -7 31 -9 38 -77 4 -39 6 -72 4 -73 -2 -2 -41 -6 -86 -8 -79 -4 -83 -4 -83
16 0 25 -50 114 -78 140 -25 22 -52 18 -31 -4 30 -31 89 -134 89 -154 0 -20
57 -38 80 -26 28 15 110 2 147 -23 17 -12 30 -24 28 -28 -5 -7 45 -34 58 -31
4 1 7 -4 7 -11 0 -8 4 -7 10 3 5 8 10 12 10 9 0 -4 33 2 73 13 118 32 138 36
242 41 89 5 98 4 81 -9 -14 -10 -16 -14 -5 -14 8 -1 -4 -9 -26 -20 -42 -20
-105 -73 -105 -88 0 -29 31 -34 172 -27 79 4 139 3 135 -1 -5 -5 -12 -10 -15
-10 -26 -6 -52 -18 -52 -24 0 -13 -91 -60 -103 -53 -6 3 -7 1 -3 -5 4 -7 2
-12 -4 -12 -13 0 -32 -14 -71 -55 -16 -16 -29 -26 -29 -21 0 4 -18 -6 -39 -23
-21 -17 -44 -31 -51 -31 -6 0 -9 -4 -5 -9 3 -5 -3 -12 -14 -16 -11 -3 -31 -21
-45 -39 -22 -29 -23 -36 -11 -46 8 -6 22 -13 32 -15 10 -2 19 -4 21 -4 10 -3
-29 -31 -43 -31 -8 0 -18 -6 -21 -13 -3 -8 -10 -14 -17 -14 -7 0 -20 -4 -29
-8 -13 -5 -18 -3 -18 8 0 24 -28 71 -47 78 -24 8 -63 -7 -81 -32 -11 -17 -15
-17 -28 -5 -8 8 -14 19 -14 25 0 6 -4 11 -10 11 -5 0 -10 11 -10 25 0 14 -12
37 -26 52 -22 22 -28 24 -39 12 -8 -8 -16 -26 -19 -42 -7 -39 -18 -71 -26 -77
-15 -11 -37 -69 -30 -81 5 -8 17 6 36 42 15 30 29 49 31 42 2 -7 -1 -22 -8
-35 -11 -21 -11 -22 5 -9 13 11 16 24 12 55 -4 29 -3 35 3 21 7 -14 8 -3 5 35
-5 51 -4 54 10 36 29 -35 34 -148 6 -131 -5 3 -7 0 -4 -8 3 -10 -3 -17 -19
-21 -14 -3 -39 -22 -56 -41 -30 -34 -31 -34 -42 -14 -6 12 -7 24 -3 28 10 7
12 43 4 51 -4 3 -11 24 -18 47 -7 22 -21 52 -31 64 -18 23 -20 23 -38 6 -11
-9 -22 -15 -25 -11 -3 3 -19 -13 -34 -36 -16 -23 -39 -55 -52 -70 -13 -16 -24
-39 -25 -50 -1 -20 -2 -20 -15 -3 -12 16 -13 16 -7 -7 3 -14 0 -39 -7 -55
l-13 -30 -33 33 c-18 18 -27 32 -20 31 38 -5 48 2 48 32 0 16 4 28 9 24 6 -3
9 3 9 12 0 10 2 37 6 60 4 25 3 44 -4 48 -6 3 -8 11 -5 16 3 5 -2 6 -11 2 -12
-4 -15 -3 -10 6 14 22 -50 -16 -80 -48 -39 -40 -47 -52 -61 -81 -15 -33 -26
-137 -14 -144 11 -7 20 -55 12 -61 -4 -2 -13 0 -21 5 -8 5 -22 4 -34 -3 -12
-6 -25 -10 -29 -9 -4 1 -26 -7 -49 -18 -29 -14 -45 -17 -52 -10 -8 8 -6 14 4
20 8 5 11 10 5 10 -5 0 2 8 15 17 14 9 29 23 33 30 4 7 14 13 20 13 18 0 19
36 1 50 -7 7 -11 17 -7 22 3 6 0 8 -8 6 -8 -3 -23 0 -34 5 -11 6 -24 11 -30
12 -5 0 -30 7 -55 14 -63 18 -210 24 -228 8 -13 -10 -12 -7 1 18 17 32 187
195 215 207 10 4 31 7 47 7 48 1 58 19 32 55 -28 40 -105 111 -120 111 -7 1
-11 6 -10 12 2 12 -65 44 -107 50 -13 3 -26 6 -29 8 -8 9 27 32 99 67 180 86
206 91 278 53 53 -28 78 -28 88 0 8 21 -3 60 -22 80 -9 8 -13 22 -10 31 3 8 2
12 -4 9 -6 -3 -10 -1 -10 5 0 14 -49 82 -68 93 -7 5 -10 12 -8 16 3 4 -13 8
-35 9 l-39 3 0 -46 c0 -25 3 -45 8 -45 4 0 6 18 4 40 -2 22 0 40 5 40 21 0 90
-81 123 -141 46 -87 50 -139 6 -90 -9 10 -35 26 -56 36 -36 16 -47 17 -96 6
-31 -7 -103 -37 -161 -65 l-104 -53 -80 17 c-43 9 -82 20 -85 23 -13 13 -23
88 -25 180 -1 53 -6 97 -10 97 -5 0 -9 -30 -9 -67z m1598 -78 c-2 -1 -13 -8
-25 -14 -20 -10 -23 -9 -23 7 0 15 5 18 25 14 14 -2 25 -6 23 -7z m331 -66
c30 -11 31 -13 33 -72 l2 -62 3 62 4 62 32 -5 c18 -3 37 -7 42 -9 6 -1 9 -29
7 -65 l-4 -63 -51 7 c-29 3 -87 6 -129 6 l-78 0 -2 33 -1 32 -4 -32 c-4 -28
-8 -32 -46 -38 -23 -3 -55 -9 -72 -12 -19 -3 -26 -2 -20 4 26 24 184 121 217
133 20 8 35 17 32 22 -7 10 -3 10 35 -3z m199 -35 c21 -6 22 -12 23 -108 1
-55 5 -114 9 -131 4 -17 7 27 6 103 -1 72 1 132 5 132 3 0 21 -3 38 -6 l31 -6
0 -119 c0 -77 4 -119 11 -119 7 0 8 37 3 118 l-6 117 51 1 51 1 0 -123 c0
-166 -19 -166 -22 -1 l-2 122 -3 -121 -4 -122 -82 -4 c-45 -2 -83 -1 -85 3
-18 40 -29 44 -136 44 -58 -1 -106 3 -106 7 0 4 -5 8 -11 8 -7 0 -8 -7 -4 -17
22 -51 77 -344 70 -367 -2 -6 -6 -38 -9 -71 -6 -68 -34 -213 -45 -233 -4 -7
-7 22 -7 65 1 99 -7 174 -17 164 -4 -4 -3 -37 2 -72 6 -35 10 -80 10 -99 -1
-34 -1 -33 -14 14 -8 28 -12 53 -10 57 6 9 -20 133 -33 155 -13 23 -13 22 -34
-89 -10 -50 -12 -77 -5 -74 6 2 11 12 12 23 3 38 17 84 25 84 8 0 24 -75 21
-103 -1 -10 10 -56 24 -103 23 -69 25 -87 15 -99 -10 -12 -10 -19 -2 -27 18
-18 14 -54 -8 -98 -11 -22 -22 -40 -24 -40 -2 0 2 23 9 50 7 28 10 50 5 50 -4
0 -13 -27 -19 -61 -22 -109 -34 -124 -143 -180 -105 -53 -132 -61 -104 -30 10
11 16 26 13 33 -3 9 -7 7 -13 -7 -15 -39 -77 -124 -100 -140 -13 -8 -77 -33
-142 -56 l-119 -40 -64 24 -64 24 78 18 c43 9 76 19 74 22 -5 4 -29 0 -200
-36 -149 -32 -165 -30 -207 27 -43 58 -47 67 -24 54 11 -5 39 -13 64 -17 59
-10 430 -13 436 -4 2 4 -80 8 -183 8 -223 2 -302 13 -334 47 -12 13 -25 21
-29 19 -4 -3 -26 30 -49 73 -23 42 -39 66 -36 52 11 -45 27 -80 37 -80 5 0 7
-3 5 -8 -3 -4 6 -21 19 -37 13 -17 24 -24 24 -16 0 11 3 11 15 1 8 -7 15 -17
15 -22 0 -7 -5 -6 -13 1 -8 6 -16 8 -20 5 -10 -10 -47 7 -47 22 0 8 -13 40
-29 72 -15 31 -41 95 -56 142 -16 47 -32 90 -37 95 -5 6 -4 -3 1 -18 6 -16 11
-34 10 -40 -1 -19 -27 56 -28 81 -1 24 -21 31 -21 7 0 -24 52 -146 84 -198 16
-26 27 -49 25 -52 -3 -2 -22 1 -42 7 -40 12 -48 29 -82 175 -29 125 -80 233
-103 219 -9 -5 -6 -18 8 -46 22 -42 28 -164 10 -175 -6 -3 -29 9 -53 28 -58
48 -206 126 -242 128 -17 1 -45 -1 -63 -5 -35 -8 -39 -1 -17 28 8 11 15 36 15
56 0 27 10 50 36 84 31 41 38 45 52 34 15 -11 15 -11 5 3 -11 13 -8 20 17 44
l30 28 40 -18 c22 -10 52 -33 66 -52 l25 -34 55 32 c62 35 83 33 34 -3 -30
-22 -80 -112 -80 -145 0 -11 7 -10 29 6 38 27 111 60 134 61 13 0 17 -8 17
-40 0 -22 4 -40 10 -40 8 0 6 40 -5 77 -2 6 4 13 14 16 16 4 21 -8 35 -97 18
-109 52 -233 67 -242 14 -8 10 28 -6 59 -12 24 -42 151 -59 253 -5 31 -5 32
32 27 20 -3 39 -7 41 -8 1 -2 9 -34 16 -72 25 -128 43 -163 110 -208 62 -42
121 -61 322 -105 55 -13 107 -20 115 -17 16 6 119 173 197 320 l52 98 -11 72
c-6 40 -13 86 -16 103 -5 28 -2 32 50 57 30 15 69 27 85 27 17 0 31 4 31 9 0
12 -25 21 -58 21 -17 1 -34 10 -45 26 -18 24 -18 26 -2 44 17 19 18 19 57 -1
22 -11 42 -18 45 -15 3 2 -12 13 -32 24 l-38 19 37 23 c28 17 40 20 49 11 8
-8 6 -11 -8 -12 -19 0 -18 -1 2 -11 30 -15 34 -34 59 -265 4 -34 10 -61 14
-58 3 2 0 64 -7 137 -10 94 -20 143 -33 165 -21 35 -16 41 13 18 23 -17 34
-64 43 -182 6 -91 0 -168 -14 -159 -13 8 -5 -143 8 -159 15 -18 9 -57 -20
-119 -11 -25 -20 -49 -20 -54 0 -5 -23 -31 -51 -57 -61 -57 -50 -71 17 -23 64
46 104 128 124 254 6 34 13 71 16 81 5 16 4 16 -5 1 -6 -9 -18 -51 -26 -93
-21 -111 -77 -226 -109 -225 -6 1 -1 9 11 19 11 10 35 50 51 89 25 57 31 84
30 141 0 39 -5 68 -9 65 -5 -3 -4 7 1 21 13 35 13 226 -1 320 -11 73 -13 77
-50 98 -21 12 -39 24 -39 27 1 11 156 110 173 110 9 0 17 4 17 10 0 8 157 90
173 90 4 0 7 -12 7 -27 0 -16 5 -35 10 -43 7 -10 9 12 8 70 -2 141 -2 140 60
124z m607 -148 c-4 -64 -10 -114 -15 -111 -4 2 -6 55 -5 117 4 141 3 134 16
121 8 -8 9 -46 4 -127z m75 96 c0 -16 -3 -70 -6 -120 -7 -90 -8 -92 -33 -94
-14 -1 -1 -4 29 -8 l55 -7 -59 -1 -59 -2 6 83 c4 45 7 103 7 130 0 46 1 47 30
47 26 0 30 -4 30 -28z m-2792 -226 c56 -61 133 -215 102 -204 -7 2 -22 28 -34
58 -30 72 -82 156 -109 175 -12 8 -17 15 -10 15 6 0 29 -20 51 -44z m2292 -16
c0 -6 -12 -15 -27 -21 -16 -6 -36 -17 -45 -26 -9 -8 -22 -12 -29 -7 -7 4 -10
3 -6 -3 4 -6 -2 -18 -12 -27 -17 -16 -19 -15 -25 21 -12 75 -14 73 69 73 45 0
75 -4 75 -10z m-2320 -86 c41 -75 43 -87 18 -103 -18 -11 -20 -11 -15 3 3 8 2
18 -3 21 -6 4 -10 1 -10 -4 0 -6 -5 -11 -10 -11 -11 0 -7 41 5 60 4 6 1 17 -5
25 -6 8 -9 18 -6 24 4 5 -2 17 -11 27 -10 10 -12 15 -4 13 7 -3 25 -27 41 -55z
m2315 -14 c-10 -11 -15 -20 -11 -20 4 0 1 -10 -5 -22 -11 -21 -11 -22 4 -9 15
12 17 11 17 -4 0 -10 -6 -15 -17 -13 -10 2 -18 11 -18 20 0 9 -4 20 -9 25 -5
4 -6 3 -2 -4 4 -8 0 -11 -14 -8 -11 2 -18 0 -15 -6 4 -5 11 -6 17 -3 8 5 9 1
5 -10 -4 -10 -3 -15 3 -11 6 3 10 1 10 -4 0 -20 -45 -5 -46 15 -1 27 14 43 36
39 10 -2 26 5 36 16 9 10 19 19 22 19 3 0 -3 -9 -13 -20z m-2407 -58 c2 -7 -3
-12 -12 -12 -9 0 -16 7 -16 16 0 17 22 14 28 -4z m2295 -96 c5 -65 -19 -190
-34 -180 -5 3 -9 0 -9 -6 0 -7 -10 -20 -22 -31 -21 -17 -21 -19 -3 -13 15 4
17 4 6 -4 -8 -6 -21 -8 -29 -4 -9 3 -13 1 -10 -4 4 -5 -5 -10 -19 -10 l-25 -2
20 22 c25 26 57 90 89 175 20 52 24 77 19 121 -4 41 -3 48 4 26 5 -15 11 -56
13 -90z m-1397 62 c-4 -24 -10 -62 -13 -85 -6 -46 -13 -52 -34 -27 -11 13 -10
24 5 63 10 25 19 55 21 66 2 11 4 21 4 23 1 1 6 2 12 2 8 0 9 -14 5 -42z m229
-15 c12 -40 15 -74 11 -108 -4 -27 -8 -58 -9 -68 -2 -24 -68 -86 -74 -69 -7
19 -25 14 -19 -5 3 -10 1 -25 -4 -33 -6 -9 -10 -10 -10 -3 0 7 -9 20 -19 30
-19 18 -18 20 15 122 36 109 72 191 85 191 4 0 15 -26 24 -57z m533 45 c20
-20 14 -24 -23 -20 -29 3 -33 7 -24 18 14 17 31 18 47 2z m-788 -15 c0 -5 -11
-26 -24 -47 -13 -22 -22 -45 -19 -52 2 -6 -8 -14 -22 -18 -18 -5 -25 -12 -23
-24 2 -9 10 -16 16 -14 7 1 12 -5 12 -14 0 -8 4 -13 8 -10 13 8 62 -47 83 -91
14 -31 18 -34 18 -15 1 32 4 31 88 -38 18 -15 57 -2 84 26 12 13 25 21 30 19
4 -3 10 3 14 14 8 26 93 103 108 98 7 -2 13 -18 15 -36 3 -27 -4 -39 -47 -81
-27 -26 -63 -56 -80 -66 -26 -15 -41 -34 -28 -34 5 0 106 53 144 76 48 28 40
38 -9 14 l-43 -21 28 22 c37 28 59 73 51 104 -6 24 3 29 42 24 4 0 15 12 24
26 16 24 19 25 22 9 3 -14 9 -9 22 21 47 109 107 99 108 -19 1 -62 -19 -104
-64 -138 -62 -47 -76 -41 -110 40 -16 41 -18 43 -13 13 3 -18 5 -46 5 -62 0
-16 5 -29 11 -29 6 0 8 9 4 23 l-7 22 17 -23 c28 -39 5 -82 -86 -159 -43 -37
-86 -70 -96 -74 -19 -7 -174 41 -199 62 -8 6 -14 18 -14 26 0 26 -40 94 -52
87 -7 -5 -8 -3 -3 6 5 9 4 11 -3 6 -31 -19 -103 57 -127 134 -7 22 -6 23 9 11
9 -7 16 -20 16 -28 0 -10 6 -12 23 -8 22 7 22 7 2 -10 -11 -9 -15 -14 -8 -11
7 4 14 -5 17 -21 7 -28 66 -74 66 -51 0 7 13 -1 30 -17 16 -15 27 -31 25 -35
-7 -12 78 -18 90 -8 6 6 5 9 -5 8 -26 -4 -40 0 -40 10 0 5 7 7 15 4 18 -7 20
12 3 22 -6 4 -14 2 -16 -4 -2 -7 -14 -12 -27 -12 -27 0 -91 72 -105 117 -6 20
-9 23 -9 8 -1 -11 8 -36 19 -55 l21 -35 -30 35 c-17 19 -29 40 -26 47 2 6 -12
25 -31 42 -39 36 -39 39 -18 89 21 52 94 125 94 95z m193 -15 c-16 -19 -83
-204 -83 -228 0 -26 -7 -25 -30 2 -16 20 -16 27 -5 59 21 58 112 195 123 185
3 -3 0 -11 -5 -18z m-1013 -8 c0 -5 -2 -10 -4 -10 -3 0 -8 5 -11 10 -3 6 -1
10 4 10 6 0 11 -4 11 -10z m25 0 c3 -5 1 -10 -4 -10 -6 0 -11 5 -11 10 0 6 2
10 4 10 3 0 8 -4 11 -10z m-75 -20 c0 -5 -4 -10 -10 -10 -5 0 -10 5 -10 10 0
6 5 10 10 10 6 0 10 -4 10 -10z m1335 -69 c-16 -31 -42 -44 -31 -15 4 9 2 13
-5 8 -7 -4 -10 -1 -7 7 3 8 11 13 17 11 7 -1 9 2 6 8 -4 6 1 17 11 25 26 19
31 -3 9 -44z m260 -52 c4 -34 3 -64 -1 -68 -5 -3 -16 -19 -24 -36 -8 -16 -21
-39 -31 -50 -24 -30 -31 -55 -13 -48 7 3 14 12 14 20 0 8 4 12 8 9 4 -2 14 -1
22 5 11 6 11 9 2 9 -8 0 -9 5 -3 18 5 9 12 25 15 35 9 30 25 18 24 -18 -1 -19
-4 -32 -8 -30 -4 3 -7 -3 -6 -13 0 -9 -4 -16 -11 -15 -7 2 -10 -4 -7 -12 4 -8
1 -15 -7 -15 -7 0 -9 -3 -6 -7 4 -3 -1 -15 -10 -25 -9 -11 -18 -25 -19 -32 -3
-20 -133 -242 -149 -256 -18 -15 -56 -10 -225 32 -135 33 -180 52 -222 91 -16
15 -28 23 -28 19 -1 -4 -7 4 -15 18 -16 30 -45 139 -45 169 0 25 18 28 26 4 3
-10 14 -38 25 -63 11 -25 20 -49 19 -53 -2 -22 88 -70 155 -83 18 -3 41 -15
51 -25 11 -12 21 -16 28 -10 6 5 25 11 41 13 41 6 115 30 115 37 0 4 16 15 35
25 19 11 35 22 35 26 0 3 15 22 33 42 63 70 73 84 90 127 10 25 18 71 18 112
1 62 4 71 26 89 14 11 29 20 33 20 5 0 11 -28 15 -61z m-785 31 c0 -5 -5 -10
-11 -10 -5 0 -7 5 -4 10 3 6 8 10 11 10 2 0 4 -4 4 -10z m-790 -30 c0 -5 -4
-10 -9 -10 -6 0 -13 5 -16 10 -3 6 1 10 9 10 9 0 16 -4 16 -10z m1488 -64 c-4
-63 -11 -84 -39 -131 -19 -31 -42 -61 -51 -66 -12 -7 -8 4 12 35 17 24 30 47
30 51 0 17 -41 -41 -65 -90 -36 -77 -122 -135 -200 -135 -32 0 -36 3 -33 23 3
20 8 22 63 20 41 -2 55 1 45 7 -8 5 -28 10 -44 10 -23 0 -27 3 -18 12 9 9 18
9 37 0 38 -17 55 -14 21 4 l-28 16 38 39 c21 21 41 39 45 39 9 0 -1 -93 -12
-105 -12 -13 -11 -28 1 -20 11 7 50 83 50 99 0 5 11 21 24 35 13 15 37 51 54
82 16 31 37 67 46 80 9 13 16 34 16 46 0 13 3 23 6 23 4 0 4 -34 2 -74z m1268
28 c-6 -16 -26 -10 -26 7 0 6 5 7 10 4 6 -3 10 -1 10 4 0 6 -5 11 -11 11 -5 0
-7 5 -3 11 9 16 27 -18 20 -37z m-2736 6 c0 -5 -4 -10 -10 -10 -5 0 -10 5 -10
10 0 6 5 10 10 10 6 0 10 -4 10 -10z m30 -5 c0 -8 -4 -15 -10 -15 -5 0 -10 7
-10 15 0 8 5 15 10 15 6 0 10 -7 10 -15z m110 5 c0 -5 -5 -10 -11 -10 -5 0 -7
5 -4 10 3 6 8 10 11 10 2 0 4 -4 4 -10z m2659 -21 c-19 -12 -24 -2 -8 17 9 11
14 13 17 4 3 -7 -2 -16 -9 -21z m-2785 -12 c4 4 4 0 1 -9 -6 -16 -9 -16 -33 0
-14 9 -27 16 -29 15 -2 -2 -8 -3 -14 -3 -8 0 -8 5 1 15 11 13 16 12 40 -5 15
-11 30 -16 34 -13z m269 22 c-7 -7 -21 -7 -44 -1 l-34 10 45 1 c31 1 41 -2 33
-10z m2504 -24 c17 -4 34 -13 37 -20 7 -19 -24 -28 -42 -13 -10 9 -52 13 -138
12 -110 -1 -123 0 -127 17 -3 10 -3 19 -2 21 5 5 238 -10 272 -17z m-2652 -12
c8 -18 16 -21 47 -19 43 4 45 0 20 -30 -20 -25 -72 -38 -72 -19 0 7 8 16 17
19 15 6 15 8 3 16 -28 18 -33 10 -27 -42 4 -35 3 -46 -3 -33 -5 11 -9 38 -10
60 -1 22 -4 32 -7 22 -3 -10 0 -57 7 -104 6 -47 9 -87 6 -90 -2 -2 -8 24 -13
59 l-9 63 -8 -88 c-4 -49 -5 -91 -2 -94 3 -4 7 16 7 43 l2 49 7 -50 c4 -30 3
-53 -3 -56 -6 -4 -7 -28 -3 -58 8 -58 -3 -181 -15 -181 -5 0 -8 61 -6 136 2
124 0 137 -17 150 -11 8 -28 14 -38 14 -17 0 -18 6 -12 63 4 34 11 72 15 85 5
13 9 34 9 47 0 29 45 67 74 63 12 -2 25 -13 31 -25z m90 17 c4 -6 11 -8 16 -5
5 4 9 2 9 -4 0 -6 -20 -9 -47 -6 -59 4 -55 3 -48 15 8 13 62 13 70 0z m2459
-50 c27 -10 28 -14 11 -139 -2 -20 -35 -23 -42 -4 -5 14 -7 14 -14 0 -10 -17
-49 -12 -49 7 0 6 -4 4 -10 -4 -17 -27 -23 -2 -21 83 1 29 5 46 11 42 6 -3 10
1 10 9 0 19 62 22 104 6z m-1311 -50 c-14 -27 -30 -47 -35 -44 -5 4 -7 12 -4
20 3 8 1 14 -4 14 -6 0 -10 -11 -10 -24 0 -13 -3 -39 -7 -57 l-7 -34 -6 35
c-6 45 17 99 47 106 12 3 27 12 34 20 22 26 19 14 -8 -36z m1425 -27 c3 -55 1
-63 -15 -65 -10 0 -25 -2 -33 -3 -30 -3 -37 13 -29 67 3 29 4 57 2 61 -3 5 12
7 33 5 l39 -3 3 -62z m-2621 -15 c-2 -21 -12 -47 -22 -57 -16 -18 -16 -21 1
-45 9 -15 23 -30 31 -34 10 -6 15 -41 20 -131 4 -83 10 -124 18 -128 7 -2 11
-13 8 -24 -5 -17 -15 -19 -84 -19 -44 0 -79 3 -79 8 0 4 35 5 77 4 43 -2 76
-1 73 2 -3 2 -33 6 -67 7 -60 2 -61 3 -52 26 5 13 9 54 9 91 0 37 7 126 15
197 8 72 15 132 15 135 0 3 9 6 21 6 18 0 20 -5 16 -38z m-182 2 c-3 -5 -10
-10 -16 -10 -5 0 -9 5 -9 10 0 6 7 10 16 10 8 0 12 -4 9 -10z m881 -26 c8 -20
13 -39 10 -42 -5 -4 -36 58 -36 73 0 16 13 0 26 -31z m1460 4 c-9 -12 -16 -30
-16 -40 0 -10 -4 -18 -10 -18 -16 0 -11 26 11 54 25 32 36 35 15 4z m-250 -59
c25 -17 65 -37 89 -46 53 -18 58 -25 13 -17 -90 16 -135 35 -147 60 -20 44
-15 45 45 3z m291 16 c0 -8 -6 -15 -13 -15 -8 0 -11 6 -8 15 4 8 9 15 13 15 4
0 8 -7 8 -15z m-357 -9 c0 -7 11 -24 24 -37 l24 -24 -42 3 c-38 3 -42 6 -40
30 1 40 3 42 19 42 8 0 15 -6 15 -14z m-1020 -66 c47 -17 91 -28 98 -25 8 3
12 -6 12 -26 0 -17 -4 -28 -10 -24 -5 3 -7 11 -5 18 4 8 -8 12 -32 13 -49 2
-148 46 -162 72 -15 28 -14 40 2 19 6 -9 50 -31 97 -47z m-726 24 c-7 -28 13
-94 29 -94 8 0 7 4 -1 12 -7 7 -12 31 -12 55 l0 43 60 -30 c55 -28 59 -32 45
-46 -14 -14 -18 -12 -41 15 -14 17 -31 31 -37 31 -6 0 3 -15 21 -33 29 -30 43
-61 25 -55 -29 10 -79 -71 -54 -86 11 -7 41 37 41 61 0 14 2 15 9 4 7 -10 15
-4 36 28 l28 41 31 -19 c43 -28 155 -140 173 -175 8 -16 17 -68 20 -121 5 -77
2 -104 -16 -163 -29 -95 -27 -131 9 -189 24 -39 30 -60 31 -111 1 -34 0 -65
-2 -67 -3 -2 -39 -1 -81 3 -81 8 -93 6 -176 -27 -52 -21 -53 -21 -47 -2 4 13
-2 27 -20 44 -21 19 -26 31 -22 58 l4 34 1 -37 c1 -20 7 -40 14 -44 8 -5 9 2
5 26 -4 18 -7 44 -7 59 0 21 -2 23 -10 11 -7 -11 -9 -2 -4 30 4 34 3 41 -5 30
-6 -8 -11 -48 -10 -90 2 -59 7 -83 26 -112 l23 -38 -30 -15 c-16 -8 -31 -15
-34 -15 -14 0 -66 109 -66 138 0 19 12 68 26 110 30 91 28 131 -11 190 -26 40
-27 46 -21 122 3 44 17 110 31 148 29 81 31 121 8 165 -9 18 -22 55 -29 82 -7
28 -13 43 -13 33 -1 -18 -33 -18 -39 0 -4 12 17 18 65 18 29 0 32 -3 27 -22z
m1762 -34 c18 -7 30 -7 40 1 8 7 25 8 46 3 18 -4 36 -7 41 -6 10 3 9 -16 -3
-23 -5 -3 -7 -12 -3 -20 4 -11 -2 -15 -23 -14 l-29 1 25 8 c14 4 19 8 11 9
-11 1 -11 4 0 19 7 9 1 6 -15 -8 -27 -24 -27 -27 -21 -98 6 -71 5 -73 -13 -63
-12 7 -25 30 -32 61 -7 28 -22 63 -34 78 -50 63 -50 62 -33 62 9 0 28 -5 43
-10z m770 -2 c3 -4 1 -15 -6 -25 -10 -16 -10 -16 -5 3 5 19 2 21 -21 16 -16
-3 -25 -1 -21 5 7 10 42 11 53 1z m-2548 -177 c-4 -25 -13 -50 -18 -55 -11
-11 -14 23 -11 123 2 44 0 61 -8 57 -7 -5 -11 4 -10 26 0 29 3 25 28 -36 24
-59 27 -76 19 -115z m344 155 c6 4 8 2 4 -4 -3 -6 0 -28 7 -49 17 -45 37 -127
33 -131 -2 -1 -11 12 -19 30 -9 18 -17 29 -17 24 0 -5 -14 6 -32 24 -19 20
-27 35 -20 38 7 2 12 23 12 50 1 37 3 43 11 29 6 -9 15 -14 21 -11z m1413 -36
c24 -35 28 -52 33 -135 2 -52 8 -95 12 -95 4 0 6 24 4 53 -6 82 13 11 24 -93
7 -68 5 -108 -9 -200 -11 -63 -15 -118 -10 -123 4 -4 8 5 9 22 0 16 8 71 17
121 8 51 13 109 10 129 -4 34 -4 33 10 -9 9 -25 18 -75 22 -112 3 -38 9 -68
13 -68 10 0 -8 138 -26 192 -15 47 -44 171 -40 175 6 7 112 -70 118 -87 13
-35 29 -241 23 -295 -4 -42 -3 -46 6 -25 7 15 9 71 7 142 l-4 118 23 -22 c17
-16 23 -32 23 -65 0 -33 3 -42 13 -37 10 6 10 4 0 -7 -15 -16 -18 -139 -3
-139 6 0 11 28 11 63 1 49 3 56 9 32 10 -41 11 -141 1 -190 l-9 -40 -2 35 c-2
31 -3 29 -12 -18 -9 -48 -12 -53 -31 -48 -12 3 -31 6 -42 6 -19 1 -19 1 2 19
16 13 24 37 33 97 6 43 14 88 17 99 3 13 2 16 -4 10 -6 -5 -16 -49 -22 -97
l-13 -86 -61 -44 c-60 -42 -89 -60 -115 -74 -16 -8 -154 41 -180 64 -23 21
-83 104 -79 109 4 3 102 -26 141 -42 14 -6 17 -5 12 3 -7 12 -201 78 -222 76
-6 -1 -11 5 -11 13 0 9 6 12 16 8 53 -21 162 -45 196 -44 35 1 32 2 -25 13
-89 18 -232 57 -248 69 -15 11 -47 83 -56 123 -6 28 -3 30 55 56 l61 27 21
-49 c12 -27 25 -50 29 -50 8 0 -19 69 -34 88 -6 7 -9 14 -7 15 2 1 27 21 56
45 28 23 56 42 62 42 11 0 61 -62 61 -76 0 -5 10 -20 21 -34 14 -18 11 -7 -10
37 -17 34 -40 68 -52 76 -20 15 -20 15 -1 21 11 4 23 13 26 21 8 22 34 8 61
-34 15 -21 25 -29 25 -19 0 24 -11 48 -21 48 -15 0 -53 39 -46 47 4 3 20 -2
35 -13 49 -36 58 -36 19 -1 l-38 35 37 60 c35 60 35 62 20 93 -20 41 1 24 39
-31z m765 30 c0 -5 -5 -10 -11 -10 -5 0 -7 5 -4 10 3 6 8 10 11 10 2 0 4 -4 4
-10z m53 -27 c-7 -2 -19 -2 -25 0 -7 3 -2 5 12 5 14 0 19 -2 13 -5z m-682
-105 c1 -52 2 -58 9 -34 5 16 8 43 6 62 -1 18 1 31 6 28 4 -3 8 -34 8 -70 l0
-65 -30 16 c-28 14 -30 20 -30 70 0 42 3 55 15 55 12 0 15 -14 16 -62z m729
-87 c0 -71 3 -136 6 -145 4 -12 0 -16 -15 -16 -19 0 -21 6 -23 63 0 34 -2 96
-4 137 -2 70 4 89 29 90 4 0 7 -58 7 -129z m-1140 115 c0 -2 -8 -10 -17 -17
-16 -13 -17 -12 -4 4 13 16 21 21 21 13z m660 -136 c0 -77 -3 -140 -7 -140
-32 1 -38 21 -41 150 l-4 130 26 0 26 0 0 -140z m77 0 l-1 -140 -27 0 c-24 0
-27 4 -33 53 -3 28 -6 91 -6 140 l0 87 34 0 34 0 -1 -140z m72 0 l-3 -140 -28
0 -28 0 0 140 0 140 31 0 31 0 -3 -140z m91 3 c0 -73 -1 -136 -2 -140 -2 -5
-20 -8 -40 -8 l-38 0 0 140 0 140 40 0 40 0 0 -132z m70 8 c0 -71 3 -136 6
-145 5 -12 -1 -16 -24 -16 -28 0 -29 2 -36 53 -8 69 -8 222 1 230 3 4 17 7 30
7 23 0 23 -1 23 -129z m70 -16 l0 -145 -25 0 c-25 0 -25 1 -27 88 -4 220 -6
202 25 202 l27 0 0 -145z m50 58 c1 -49 3 -112 6 -140 4 -32 2 -53 -4 -53 -6
0 -17 -3 -26 -6 -14 -5 -16 11 -16 140 0 139 1 146 20 146 18 0 20 -7 20 -87z
m-2099 -58 c28 -5 40 -14 53 -42 9 -20 16 -36 14 -38 -2 -1 -33 0 -70 3 l-66
4 -4 47 c-6 56 -1 67 20 47 10 -8 33 -17 53 -21z m1018 -65 c-19 -16 -46 -32
-61 -35 -15 -4 -30 -11 -33 -16 -11 -17 -26 -10 -17 8 9 14 112 70 136 72 5 1
-7 -12 -25 -29z m-944 -40 c11 -5 31 -11 45 -14 14 -3 33 -17 42 -30 l18 -24
-98 -6 c-53 -4 -112 -9 -129 -12 -24 -4 -31 -1 -28 8 4 9 23 12 68 10 34 -2
87 2 117 7 l55 10 -67 -4 c-37 -2 -89 -2 -115 2 -49 5 -49 5 -45 40 l4 34 57
-6 c31 -4 65 -10 76 -15z m-595 -60 c0 -28 -2 -30 -37 -29 l-38 2 35 7 c27 6
15 8 -47 9 -93 1 -111 17 -30 25 81 9 112 13 115 15 1 0 2 -12 2 -29z m-183
-5 c0 -8 -6 -15 -13 -15 -18 0 -27 17 -12 23 21 9 25 8 25 -8z m1558 -52 c3
-27 8 -58 11 -70 2 -13 5 -25 5 -28 1 -2 9 -37 19 -77 11 -39 17 -75 14 -79
-2 -4 0 -10 4 -13 13 -8 15 -126 2 -140 -12 -15 -20 -156 -9 -156 5 0 6 -12 3
-28 -4 -19 1 -34 15 -51 26 -30 26 -41 0 -41 -11 0 -28 -4 -38 -9 -13 -7 -27
-2 -59 22 -46 36 -48 40 -27 81 9 16 14 35 11 42 -2 6 0 16 6 22 19 19 27 104
17 177 -13 100 -39 339 -39 358 0 10 7 17 14 17 11 0 16 -15 19 -52 l3 -53 2
63 c2 73 18 82 27 15z m785 -28 l0 -34 -23 22 c-13 12 -27 35 -31 50 l-7 28
31 -16 c24 -13 30 -22 30 -50z m-857 -17 c3 -35 4 -64 3 -66 -2 -1 -11 0 -20
4 -12 4 -15 13 -10 28 4 11 6 38 6 59 -3 62 15 41 21 -25z m1236 34 c11 -16
23 -40 26 -55 7 -25 5 -27 -22 -27 -50 0 -70 30 -64 98 2 22 39 12 60 -16z
m-1275 -24 c-2 -24 -5 -95 -7 -158 -2 -64 -6 -120 -9 -125 -3 -6 -2 -52 1
-103 5 -82 4 -92 -11 -92 -35 0 -45 11 -42 46 1 21 -2 34 -10 34 -8 0 -11 -12
-8 -35 5 -41 -15 -48 -21 -7 -4 25 -4 25 -6 -5 -1 -23 -6 -33 -17 -33 -10 0
-14 6 -10 18 3 9 8 29 12 44 3 16 10 25 15 22 5 -3 7 1 4 8 -3 7 -1 27 4 43 8
26 10 27 11 8 4 -38 5 -41 14 -50 5 -5 6 10 2 35 -4 24 -2 42 3 42 5 0 7 16 4
35 -3 22 0 47 10 68 9 19 19 60 22 93 3 32 8 72 10 87 3 17 1 26 -5 22 -6 -3
-11 -32 -11 -63 -2 -67 -12 -124 -19 -102 -3 8 -4 55 -2 103 3 82 5 89 23 84
10 -3 17 -1 14 3 -5 7 9 17 26 19 4 1 5 -18 3 -41z m-162 -8 c13 0 34 -7 46
-16 13 -9 26 -14 29 -11 2 3 -5 11 -17 17 -18 10 -20 14 -9 21 32 20 41 11 35
-37 -3 -26 -7 -49 -10 -51 -12 -13 -92 39 -126 81 -14 18 -14 19 7 8 12 -7 32
-12 45 -12z m349 -69 c16 -5 19 -10 10 -15 -6 -4 -20 -2 -29 6 -15 12 -16 11
-3 -4 7 -10 10 -18 6 -18 -5 0 -6 -3 -3 -6 4 -3 18 2 32 11 30 20 31 18 11
-55 -8 -30 -12 -67 -9 -82 3 -15 2 -33 -2 -39 -4 -7 -16 28 -26 77 -11 49 -23
105 -27 124 -22 95 -22 97 -1 52 10 -23 29 -46 41 -51z m764 -9 c4 -15 8 -35
10 -45 10 -51 -50 -177 -77 -161 -4 3 -6 9 -3 14 3 5 -3 7 -14 5 -15 -3 -18 0
-14 13 4 9 11 20 16 24 6 3 12 23 14 45 2 21 11 48 19 61 10 15 13 34 8 58 -6
34 -6 36 15 25 11 -6 23 -24 26 -39z m52 -9 c14 -21 18 -50 19 -128 1 -55 5
-132 9 -171 10 -89 -7 -129 -57 -137 -40 -6 -57 6 -42 31 10 16 10 32 0 95
-11 71 -19 96 -29 90 -6 -4 4 12 22 35 36 44 53 106 45 162 -4 26 -3 31 5 20
6 -8 11 -40 11 -70 0 -56 -13 -86 -53 -122 -11 -10 -15 -18 -9 -18 5 0 21 13
35 29 14 17 27 28 29 26 12 -12 10 143 -2 165 -16 29 -3 24 17 -7z m-962 1 c9
-9 14 -18 11 -21 -7 -7 -46 16 -46 27 0 15 17 12 35 -6z m-125 -29 c0 -20 -10
-19 -26 3 -19 25 -17 34 6 22 11 -6 20 -17 20 -25z m126 -3 c16 -10 26 -124
11 -116 -36 21 -47 39 -47 81 0 42 10 53 36 35z m191 -14 c-3 -8 -6 -5 -6 6
-1 11 2 17 5 13 3 -3 4 -12 1 -19z m29 -64 c2 -43 7 -80 10 -83 4 -3 4 29 2
72 -4 79 5 96 30 56 11 -17 10 -29 -3 -70 -10 -28 -14 -53 -11 -56 3 -3 11 15
18 41 7 25 16 46 20 46 10 0 1 -40 -19 -89 -8 -18 -12 -36 -9 -38 6 -6 25 37
35 79 l6 27 46 -44 c43 -40 46 -46 32 -62 -14 -17 -14 -17 -9 0 8 26 0 20 -23
-17 -20 -31 -26 -34 -85 -41 -49 -5 -71 -3 -93 9 -27 15 -26 15 50 16 74 0 79
1 115 35 45 42 36 47 -10 6 -31 -27 -36 -28 -106 -23 -76 5 -89 16 -56 49 12
12 14 27 10 57 -3 26 -2 34 3 21 7 -16 11 -8 21 38 6 32 14 56 16 54 3 -3 7
-40 10 -83z m-39 24 c-3 -8 -6 -5 -6 6 -1 11 2 17 5 13 3 -3 4 -12 1 -19z
m-157 -105 c0 -12 3 -29 7 -38 5 -15 3 -16 -15 -6 -23 12 -52 60 -52 85 0 13
4 13 30 -2 19 -11 30 -25 30 -39z m429 -34 c30 -11 31 -12 16 -29 -27 -29 -72
-45 -90 -30 -8 6 -20 8 -26 4 -9 -5 -7 -10 7 -15 16 -6 16 -8 2 -8 -23 -1 -34
19 -17 30 8 5 10 9 6 9 -5 0 -5 5 -2 10 4 7 14 3 25 -10 17 -20 20 -20 49 -6
16 9 33 21 36 27 4 6 -7 3 -25 -6 -38 -20 -61 -7 -35 19 20 19 15 19 54 5z
m311 1 c13 -8 13 -10 -2 -10 -9 0 -20 5 -23 10 -8 13 5 13 25 0z m57 -16 c-3
-3 -12 -4 -19 -1 -8 3 -5 6 6 6 11 1 17 -2 13 -5z m-1675 -20 c9 -2 19 -11 22
-19 4 -13 -7 -15 -69 -13 -52 2 -78 -2 -87 -11 -11 -11 -8 -13 13 -7 31 7 35
-3 45 -101 l6 -58 38 3 c44 4 72 -8 76 -33 2 -12 -2 -15 -14 -9 -30 13 -117
21 -137 13 -11 -4 -45 -14 -75 -23 -30 -9 -68 -25 -85 -36 -36 -24 -45 -25
-45 -6 0 7 14 19 30 26 17 7 30 16 30 21 0 5 -13 3 -29 -5 l-28 -15 -13 42
c-8 23 -22 54 -32 69 -30 43 -22 64 41 108 71 49 139 69 221 64 41 -3 82 -7
92 -10z m1386 -24 c4 -40 -13 -31 -21 10 -3 21 -5 19 -6 -8 0 -18 4 -42 9 -53
7 -12 7 -19 1 -19 -6 0 -8 -7 -5 -15 4 -8 3 -23 -1 -32 -5 -10 -9 -24 -11 -31
-4 -23 -11 -25 -59 -18 -45 7 -61 28 -30 40 12 4 13 10 5 25 -19 37 -8 73 30
95 19 12 38 20 43 18 4 -1 6 1 6 6 -3 18 2 23 19 20 11 -2 18 -14 20 -38z
m262 6 c0 -14 5 -28 11 -32 8 -5 10 3 7 25 -2 17 -1 31 3 31 8 0 23 -62 19
-76 -1 -4 3 -10 8 -13 6 -3 -2 -27 -18 -55 l-28 -49 5 63 c4 41 3 61 -4 57
-11 -7 -33 33 -33 58 0 8 7 15 15 15 9 0 15 -9 15 -24z m-1622 -45 c3 -9 0
-11 -8 -6 -7 4 -5 -5 4 -24 9 -17 15 -31 13 -31 -3 0 -1 -18 3 -39 l7 -40 -51
6 c-28 3 -52 6 -52 7 -1 1 -4 26 -7 56 -2 30 -8 63 -12 73 -7 16 -2 18 45 15
35 -2 55 -8 58 -17z m1192 -7 c0 -17 -16 -18 -24 -1 -3 6 -4 -1 -1 -18 3 -16
0 -37 -5 -45 -8 -11 -10 -1 -8 36 1 44 4 51 20 46 10 -2 18 -11 18 -18z m412
-138 c8 -12 -9 -36 -27 -36 -7 0 -15 7 -19 15 -3 8 -15 15 -26 15 -25 0 -27
-17 -2 -23 9 -3 1 -5 -18 -6 -26 0 -31 2 -20 9 12 8 9 10 -12 10 -15 0 -29 -4
-32 -8 -3 -5 -19 -9 -37 -10 -36 -1 -35 0 22 37 41 25 47 26 104 17 33 -5 63
-14 67 -20z m-558 -78 c-22 -6 -34 -3 -52 15 -25 23 -43 57 -36 69 3 4 30 -12
60 -35 l56 -41 -28 -8z m376 20 c10 -6 5 -8 -17 -4 -18 3 -33 1 -33 -4 0 -5
17 -11 38 -13 20 -2 4 -4 -37 -5 l-74 -2 34 24 c33 24 56 25 89 4z m-1453 -54
c-3 -3 -12 -4 -19 -1 -8 3 -5 6 6 6 11 1 17 -2 13 -5z m-337 -165 c-7 -11 -14
-18 -17 -15 -8 8 5 36 17 36 7 0 7 -6 0 -21z"/>
<path d="M2013 2450 c0 -30 2 -43 4 -27 2 15 2 39 0 55 -2 15 -4 2 -4 -28z"/>
<path d="M2111 2304 c0 -11 3 -14 6 -6 3 7 2 16 -1 19 -3 4 -6 -2 -5 -13z"/>
<path d="M1741 1939 c19 -37 59 -161 59 -186 0 -24 -84 -221 -102 -238 -13
-13 -3 20 23 81 11 24 20 46 19 49 0 3 7 19 16 36 9 19 13 41 9 56 -4 18 -2
23 6 17 8 -4 9 -3 5 5 -4 6 -9 29 -10 50 -3 41 -36 131 -48 131 -11 0 -11 1
16 -66 33 -83 24 -154 -37 -299 -27 -64 -38 -100 -27 -85 11 14 20 20 20 13 0
-6 -16 -28 -35 -49 -19 -20 -35 -41 -35 -47 0 -6 -6 -18 -13 -26 -14 -17 -39
-92 -33 -98 11 -11 35 31 30 52 -3 12 -1 26 4 29 6 4 8 -2 5 -14 -3 -11 0 -20
6 -20 6 0 11 6 11 13 0 8 31 74 69 148 38 74 81 162 95 197 26 61 26 64 11
115 -23 79 -56 157 -67 157 -5 0 -4 -10 3 -21z"/>
<path d="M2056 1814 c-9 -24 -7 -28 9 -14 17 14 20 30 6 30 -5 0 -12 -7 -15
-16z"/>
<path d="M504 1753 c-4 -10 -8 -20 -8 -23 -3 -15 -19 -30 -27 -25 -5 3 -6 -1
-3 -10 6 -14 9 -14 28 4 23 22 35 24 52 10 16 -13 28 21 13 35 -9 8 -10 7 -6
-6 4 -12 2 -15 -8 -11 -8 3 -12 9 -9 14 3 5 -2 6 -11 3 -11 -5 -14 -2 -9 10 8
22 -2 20 -12 -1z"/>
<path d="M488 1678 l-22 -32 26 19 c15 11 28 26 28 33 0 19 -7 15 -32 -20z"/>
<path d="M444 1679 c-3 -6 -1 -16 4 -21 8 -8 11 -5 9 11 -1 24 -3 25 -13 10z"/>
<path d="M531 1667 c-13 -21 -12 -21 5 -5 10 10 16 20 13 22 -3 3 -11 -5 -18
-17z"/>
<path d="M811 1659 c-1 -43 17 -148 30 -169 6 -10 7 -7 3 11 -3 15 -11 64 -19
110 -7 50 -13 70 -14 48z"/>
<path d="M1977 1653 c-4 -3 -7 -36 -7 -71 0 -82 6 -77 14 11 6 67 5 73 -7 60z"/>
<path d="M525 1621 c-3 -5 -1 -12 5 -16 5 -3 10 1 10 9 0 18 -6 21 -15 7z"/>
<path d="M574 1615 c-10 -8 -14 -15 -8 -15 6 0 17 7 24 15 16 19 9 19 -16 0z"/>
<path d="M740 1535 c0 -8 5 -15 10 -15 6 0 10 7 10 15 0 8 -4 15 -10 15 -5 0
-10 -7 -10 -15z"/>
<path d="M1987 1509 c-9 -6 -28 -31 -41 -57 -24 -46 -188 -203 -221 -210 -8
-2 -15 -9 -15 -15 0 -7 -21 -36 -46 -65 -26 -30 -44 -59 -42 -69 3 -13 14 -2
40 37 20 30 45 64 55 75 23 24 83 75 66 55 -18 -20 -16 -28 7 -35 32 -10 117
46 103 68 -3 6 -2 7 4 4 11 -7 61 59 81 106 16 36 16 37 -9 32 -13 -3 -19 0
-16 8 2 7 12 11 21 9 20 -4 56 37 49 55 -6 15 -12 16 -36 2z m23 -24 c0 -2
-10 -10 -22 -16 -21 -11 -22 -11 -9 4 13 16 31 23 31 12z m-51 -91 c-7 -9 -14
-23 -15 -31 -4 -23 -10 -24 -28 -4 -15 17 -15 19 1 32 16 13 17 12 4 -3 -9
-12 -10 -18 -2 -18 6 0 14 8 18 18 10 28 27 46 31 33 2 -7 -2 -19 -9 -27z
m-71 -89 c-18 -10 -26 -9 -37 1 -12 11 -12 16 -2 28 11 14 16 14 37 -1 l25
-16 -23 -12z m-33 -45 c-29 -19 -55 -17 -55 5 0 8 15 13 42 13 l42 1 -29 -19z"/>
<path d="M761 1494 c0 -11 3 -14 6 -6 3 7 2 16 -1 19 -3 4 -6 -2 -5 -13z"/>
<path d="M915 1370 c22 -36 286 -181 400 -220 89 -30 170 -42 211 -31 27 8
123 62 173 98 2 2 2 5 -1 8 -2 3 -24 -8 -49 -23 -37 -24 -56 -28 -124 -31
-104 -3 -195 17 -329 73 -119 50 -120 51 -111 36 3 -6 -1 -7 -9 -4 -9 3 -13
10 -10 15 3 5 -3 6 -12 2 -13 -5 -15 -3 -9 7 5 7 4 11 -1 7 -5 -3 -36 12 -68
34 -60 41 -71 46 -61 29z m277 -138 c75 -34 155 -61 200 -69 50 -7 160 -7 188
1 15 4 10 -2 -14 -15 -46 -25 -106 -26 -191 -4 -80 21 -286 115 -253 115 3 0
35 -13 70 -28z"/>
<path d="M1616 1282 c-3 -5 1 -9 9 -9 8 0 12 4 9 9 -3 4 -7 8 -9 8 -2 0 -6 -4
-9 -8z"/>
<path d="M2317 2180 c3 -11 9 -20 14 -20 11 0 11 3 3 24 -9 23 -23 20 -17 -4z"/>
<path d="M1128 1935 c2 -14 8 -25 13 -25 10 0 11 12 3 34 -10 25 -22 19 -16
-9z"/>
<path d="M1102 1832 c-1 -30 2 -42 10 -40 6 2 14 10 16 18 3 7 0 10 -6 6 -7
-4 -12 6 -15 26 -3 28 -4 27 -5 -10z"/>
<path d="M1040 1759 c0 -5 5 -7 10 -4 6 3 10 8 10 11 0 2 -4 4 -10 4 -5 0 -10
-5 -10 -11z"/>
<path d="M855 1969 c-4 -6 -5 -12 -2 -15 2 -3 7 2 10 11 7 17 1 20 -8 4z"/>
<path d="M1473 1948 c-25 -27 -46 -76 -37 -89 3 -5 12 -9 20 -9 19 0 18 -44
-1 -60 -13 -10 -15 -9 -15 9 0 11 5 21 10 21 6 0 10 5 10 11 0 6 -7 9 -16 7
-8 -2 -14 -6 -12 -9 2 -4 -5 -16 -15 -27 -22 -24 -14 -50 9 -31 8 6 14 8 14 4
0 -5 9 0 20 10 22 20 25 82 4 78 -6 -1 -11 5 -11 13 0 9 7 12 19 8 10 -3 18
-1 18 5 0 6 -7 11 -15 11 -8 0 -15 5 -15 10 0 6 3 10 8 10 19 -1 31 -19 35
-55 2 -27 4 -20 4 21 1 78 -7 91 -34 62z m24 -24 c-9 -9 -28 6 -21 18 4 6 10
6 17 -1 6 -6 8 -13 4 -17z"/>
<path d="M1135 1701 c-3 -5 -1 -12 5 -16 12 -7 30 2 30 16 0 12 -27 12 -35 0z"/>
<path d="M1308 1675 c2 -14 9 -25 14 -25 6 0 7 7 4 16 -3 9 -6 20 -6 25 0 5
-4 9 -9 9 -4 0 -6 -11 -3 -25z"/>
<path d="M1230 1654 c-14 -10 -37 -28 -52 -42 -30 -28 -111 -42 -102 -18 3 7
16 19 29 26 14 7 21 18 18 27 -5 11 -9 11 -24 -3 -11 -9 -19 -13 -20 -8 -1 5
-5 -6 -9 -25 -7 -29 -5 -37 18 -57 15 -13 32 -23 37 -24 6 0 3 5 -5 10 -12 8
-12 10 5 10 25 0 127 47 138 63 5 8 7 5 5 -8 -2 -14 -21 -27 -66 -44 -73 -29
-76 -40 -4 -17 63 21 84 44 80 87 -4 39 -15 45 -48 23z m14 -36 c-22 -24 -97
-58 -127 -58 -15 1 -11 5 15 14 20 7 56 30 80 50 43 37 66 33 32 -6z"/>
<path d="M1017 1883 c-9 -9 -9 -43 1 -43 4 0 7 11 7 25 0 14 0 25 -1 25 0 0
-4 -3 -7 -7z"/>
<path d="M163 1370 c0 -25 2 -35 4 -22 2 12 2 32 0 45 -2 12 -4 2 -4 -23z"/>
<path d="M2661 1704 c0 -11 3 -14 6 -6 3 7 2 16 -1 19 -3 4 -6 -2 -5 -13z"/>
<path d="M2665 1665 c4 -11 10 -28 12 -37 3 -10 9 -18 14 -18 5 0 3 12 -3 28
-14 33 -35 57 -23 27z"/>
<path d="M2746 1653 c-4 -9 -3 -20 2 -25 6 -6 10 1 10 16 0 30 -3 32 -12 9z"/>
<path d="M493 1386 c-18 -20 -33 -42 -33 -48 0 -6 -2 -9 -5 -6 -3 3 2 21 10
41 9 23 11 37 5 37 -13 0 -30 -44 -28 -73 1 -12 -4 -53 -10 -92 -6 -38 -11
-101 -10 -140 1 -38 -2 -81 -6 -95 -4 -14 2 -7 14 15 11 22 25 44 30 49 6 6 5
17 -2 30 -21 37 -15 165 9 216 41 88 39 88 121 12 l74 -68 -1 -95 c0 -117 -11
-145 -55 -147 -25 -1 -36 5 -49 27 -20 34 -21 65 -4 147 10 48 10 63 0 72 -9
9 -13 4 -18 -26 -11 -60 -25 -99 -47 -128 -15 -18 -17 -25 -7 -22 8 2 23 23
35 47 l20 42 -4 -58 c-3 -48 0 -63 17 -84 43 -56 104 -38 121 36 22 93 4 229
-31 240 -11 4 -24 15 -30 26 -5 11 -14 17 -19 14 -16 -10 -22 15 -8 33 12 15
11 16 -4 4 -11 -9 -18 -10 -23 -2 -3 6 -10 8 -15 5 -5 -3 -10 2 -12 12 -2 13
-10 8 -35 -21z m54 -158 c-3 -8 -6 -5 -6 6 -1 11 2 17 5 13 3 -3 4 -12 1 -19z"/>
<path d="M557 1313 c-4 -3 -7 -11 -7 -17 0 -6 5 -5 12 2 6 6 9 14 7 17 -3 3
-9 2 -12 -2z"/>
<path d="M395 1260 c-3 -11 -3 -24 0 -30 7 -12 25 -4 25 11 0 6 -5 7 -11 3 -8
-4 -9 0 -4 15 3 11 4 21 1 21 -2 0 -7 -9 -11 -20z"/>
<path d="M357 1243 c-4 -3 -7 -42 -7 -85 0 -59 3 -79 13 -75 7 2 11 17 9 33
-1 16 -3 53 -5 81 -1 29 -2 53 -3 53 0 0 -4 -3 -7 -7z m10 -145 c-3 -7 -5 -2
-5 12 0 14 2 19 5 13 2 -7 2 -19 0 -25z"/>
<path d="M610 1148 c0 -27 4 -38 15 -38 8 0 15 8 15 18 0 15 -2 15 -11 2 -9
-12 -10 -11 -6 6 2 12 1 28 -4 35 -6 9 -9 1 -9 -23z"/>
<path d="M466 1060 c-14 -18 -26 -37 -26 -43 0 -9 3 -8 8 1 6 9 16 4 37 -18
28 -30 45 -38 45 -22 0 5 -11 15 -25 22 -14 7 -25 19 -25 27 0 7 -5 13 -11 13
-8 0 -7 5 2 16 7 8 21 13 31 10 11 -2 18 0 15 7 -7 22 -25 17 -51 -13z"/>
<path d="M520 1044 c0 -13 18 -39 24 -34 2 3 -2 14 -10 24 -8 11 -14 16 -14
10z"/>
<path d="M361 970 c0 -15 4 -31 9 -36 6 -6 7 -27 1 -57 -11 -63 2 -60 18 4 11
43 11 52 -2 62 -8 7 -17 21 -20 32 -4 16 -5 15 -6 -5z"/>
<path d="M650 970 c-8 -5 -11 -12 -7 -16 4 -4 15 0 24 9 18 18 8 23 -17 7z"/>
<path d="M476 925 l-40 -33 41 11 c36 9 44 8 74 -13 69 -49 91 -97 98 -212 2
-28 21 -21 21 7 0 50 -22 124 -46 152 -13 15 -24 31 -24 35 0 4 -12 14 -27 22
-24 13 -25 15 -8 16 11 0 35 -4 53 -9 17 -5 32 -6 32 -2 0 12 -79 33 -100 26
-28 -9 -44 3 -29 21 21 26 -5 14 -45 -21z"/>
<path d="M507 805 c-4 -22 -2 -44 3 -49 15 -15 22 18 12 55 l-8 34 -7 -40z"/>
<path d="M698 730 c5 -47 33 -58 31 -12 l-1 27 -8 -25 c-7 -22 -8 -21 -9 13
-1 20 -4 37 -9 37 -4 0 -6 -18 -4 -40z"/>
<path d="M600 701 c0 -22 17 -37 28 -26 4 4 2 10 -5 12 -7 2 -9 11 -6 19 3 8
0 14 -6 14 -6 0 -11 -9 -11 -19z"/>
<path d="M2061 1383 c-1 -18 4 -33 10 -33 6 0 9 -9 6 -20 -3 -11 -1 -23 5 -26
6 -4 5 -10 -3 -15 -11 -7 -11 -9 -1 -9 7 0 11 -3 9 -7 -3 -5 6 -28 19 -53 25
-48 31 -49 13 -3 -6 15 -14 51 -19 78 -5 28 -15 66 -23 85 l-15 35 -1 -32z"/>
<path d="M2195 1215 c19 -54 38 -127 50 -195 7 -41 13 -63 14 -49 2 57 -40
232 -62 254 -7 7 -7 3 -2 -10z"/>
<path d="M1720 1080 c0 -23 157 -167 210 -192 56 -26 110 -28 128 -4 14 18 45
107 39 112 -3 3 -13 -16 -23 -43 -24 -66 -31 -73 -73 -73 -53 0 -126 47 -209
134 -39 42 -72 72 -72 66z"/>
<path d="M2332 1010 c0 -14 2 -19 5 -12 2 6 2 18 0 25 -3 6 -5 1 -5 -13z"/>
<path d="M1820 1016 c0 -2 8 -10 18 -17 15 -13 16 -12 3 4 -13 16 -21 21 -21
13z"/>
<path d="M2281 990 c-1 -8 -4 -26 -7 -40 -5 -22 -4 -23 6 -7 6 10 9 28 7 40
-2 12 -5 15 -6 7z"/>
<path d="M2234 842 c11 -19 -50 -99 -85 -111 -42 -14 -82 -14 -97 1 -8 8 -12
8 -12 1 0 -24 65 -31 118 -12 19 7 43 28 62 57 33 50 35 58 18 68 -7 4 -8 3
-4 -4z"/>
<path d="M2213 1350 c0 -25 2 -35 4 -22 2 12 2 32 0 45 -2 12 -4 2 -4 -23z"/>
<path d="M760 1120 c0 -6 27 -10 63 -9 46 1 56 3 37 9 -36 12 -100 12 -100 0z"/>
<path d="M1635 905 c22 -114 24 -122 19 -55 -4 36 -10 69 -15 75 -6 6 -7 -2
-4 -20z"/>
<path d="M2780 1004 c0 -3 11 -19 25 -36 29 -34 32 -30 10 12 -14 26 -35 41
-35 24z"/>
<path d="M2460 836 c0 -2 7 -6 15 -10 8 -3 15 -1 15 4 0 6 -7 10 -15 10 -8 0
-15 -2 -15 -4z"/>
<path d="M2561 714 c0 -11 3 -14 6 -6 3 7 2 16 -1 19 -3 4 -6 -2 -5 -13z"/>
<path d="M1595 690 c3 -5 8 -10 11 -10 2 0 4 5 4 10 0 6 -5 10 -11 10 -5 0 -7
-4 -4 -10z"/>
<path d="M2338 413 c7 -3 16 -2 19 1 4 3 -2 6 -13 5 -11 0 -14 -3 -6 -6z"/>
<path d="M315 2615 c2 -71 8 -141 14 -155 9 -20 10 -14 5 30 -4 30 -10 100
-15 155 -8 99 -8 99 -4 -30z"/>
<path d="M465 2696 l7 -44 -56 -7 c-31 -4 -59 -12 -63 -18 -4 -6 3 -8 18 -4
71 17 130 18 219 2 95 -17 95 -17 149 -74 44 -45 50 -50 35 -23 -43 76 -100
104 -241 119 l-53 6 0 43 c0 24 -5 44 -11 44 -6 0 -8 -16 -4 -44z"/>
<path d="M1130 2729 c0 -5 5 -7 10 -4 6 3 10 8 10 11 0 2 -4 4 -10 4 -5 0 -10
-5 -10 -11z"/>
<path d="M1241 2693 c2 -89 17 -115 17 -30 0 42 -4 77 -9 77 -5 0 -8 -21 -8
-47z"/>
<path d="M1418 2725 c40 -18 294 -99 337 -109 53 -11 4 11 -65 30 -36 10 -68
22 -72 28 -4 6 -8 8 -8 4 0 -4 -46 9 -102 28 -105 35 -148 44 -90 19z"/>
<path d="M1816 2732 c-3 -5 1 -9 9 -9 8 0 12 4 9 9 -3 4 -7 8 -9 8 -2 0 -6 -4
-9 -8z"/>
<path d="M1884 2724 c3 -9 6 -23 6 -32 0 -12 3 -13 11 -5 13 13 3 53 -13 53
-5 0 -7 -7 -4 -16z"/>
<path d="M2820 2736 c0 -2 7 -6 15 -10 8 -3 15 -1 15 4 0 6 -7 10 -15 10 -8 0
-15 -2 -15 -4z"/>
<path d="M1611 2704 c0 -11 3 -14 6 -6 3 7 2 16 -1 19 -3 4 -6 -2 -5 -13z"/>
<path d="M1640 2699 c0 -5 5 -7 10 -4 6 3 10 8 10 11 0 2 -4 4 -10 4 -5 0 -10
-5 -10 -11z"/>
<path d="M1817 2693 c-4 -3 -7 -11 -7 -17 0 -6 5 -5 12 2 6 6 9 14 7 17 -3 3
-9 2 -12 -2z"/>
<path d="M1930 2679 c0 -5 5 -7 10 -4 6 3 10 8 10 11 0 2 -4 4 -10 4 -5 0 -10
-5 -10 -11z"/>
<path d="M1826 2661 c-4 -7 -5 -15 -2 -18 9 -9 19 4 14 18 -4 11 -6 11 -12 0z"/>
<path d="M470 2574 c0 -21 5 -46 11 -54 7 -11 8 -1 3 35 -8 62 -14 70 -14 19z"/>
<path d="M2675 2600 c3 -5 8 -10 11 -10 2 0 4 5 4 10 0 6 -5 10 -11 10 -5 0
-7 -4 -4 -10z"/>
<path d="M2955 2590 c3 -5 8 -10 11 -10 2 0 4 5 4 10 0 6 -5 10 -11 10 -5 0
-7 -4 -4 -10z"/>
<path d="M620 2574 c0 -8 5 -12 10 -9 6 4 8 11 5 16 -9 14 -15 11 -15 -7z"/>
<path d="M2920 2579 c0 -5 5 -7 10 -4 6 3 10 8 10 11 0 2 -4 4 -10 4 -5 0 -10
-5 -10 -11z"/>
<path d="M2748 2573 c7 -3 16 -2 19 1 4 3 -2 6 -13 5 -11 0 -14 -3 -6 -6z"/>
<path d="M1780 2559 c0 -5 5 -7 10 -4 6 3 10 8 10 11 0 2 -4 4 -10 4 -5 0 -10
-5 -10 -11z"/>
<path d="M2300 2554 c0 -8 5 -12 10 -9 6 3 10 10 10 16 0 5 -4 9 -10 9 -5 0
-10 -7 -10 -16z"/>
<path d="M1968 2553 c6 -2 18 -2 25 0 6 3 1 5 -13 5 -14 0 -19 -2 -12 -5z"/>
<path d="M2930 2550 c0 -5 5 -10 11 -10 5 0 7 5 4 10 -3 6 -8 10 -11 10 -2 0
-4 -4 -4 -10z"/>
<path d="M2321 2528 c-1 -10 6 -18 14 -18 8 0 15 5 15 11 0 5 -4 8 -9 5 -5 -4
-12 0 -14 6 -3 8 -6 6 -6 -4z"/>
<path d="M2562 2513 c-63 -22 -47 -24 33 -3 43 12 58 19 40 19 -16 0 -49 -7
-73 -16z"/>
<path d="M26 2465 c46 -20 224 -65 254 -64 16 1 9 5 -20 11 -25 5 -91 23 -148
39 -110 31 -135 35 -86 14z"/>
<path d="M2665 2470 c3 -5 8 -10 11 -10 2 0 4 5 4 10 0 6 -5 10 -11 10 -5 0
-7 -4 -4 -10z"/>
<path d="M11 2364 c0 -11 3 -14 6 -6 3 7 2 16 -1 19 -3 4 -6 -2 -5 -13z"/>
<path d="M355 2248 c4 -13 12 -27 18 -33 7 -7 8 -4 3 8 -3 10 -6 25 -6 33 0 8
-5 14 -11 14 -6 0 -8 -9 -4 -22z"/>
<path d="M270 2220 c0 -5 5 -10 10 -10 6 0 10 5 10 10 0 6 -4 10 -10 10 -5 0
-10 -4 -10 -10z"/>
<path d="M2580 2218 c0 -4 -15 -8 -32 -10 -18 -2 21 -4 87 -4 66 1 145 -2 175
-7 34 -4 47 -4 35 2 -43 18 -265 35 -265 19z"/>
<path d="M2480 2190 c0 -5 7 -7 15 -4 8 4 15 8 15 10 0 2 -7 4 -15 4 -8 0 -15
-4 -15 -10z"/>
<path d="M435 2180 c-3 -5 -1 -10 4 -10 6 0 11 5 11 10 0 6 -2 10 -4 10 -3 0
-8 -4 -11 -10z"/>
<path d="M290 2170 c0 -5 5 -10 10 -10 6 0 10 5 10 10 0 6 -4 10 -10 10 -5 0
-10 -4 -10 -10z"/>
<path d="M380 2165 c0 -2 11 -16 24 -30 23 -25 46 -27 46 -4 0 6 -4 8 -9 4 -6
-3 -13 1 -18 8 -8 13 -43 31 -43 22z"/>
<path d="M2853 2133 c25 -21 51 -48 58 -60 6 -12 16 -20 21 -17 4 3 8 1 8 -4
0 -5 6 -9 13 -9 6 0 18 -2 26 -4 7 -2 16 2 19 10 3 10 0 12 -12 8 -10 -4 -26
1 -39 14 -18 17 -19 21 -7 29 8 5 11 12 7 16 -4 4 -13 0 -20 -10 -11 -15 -16
-13 -52 24 -21 22 -45 40 -53 40 -7 0 7 -17 31 -37z"/>
<path d="M330 2150 c0 -5 5 -10 10 -10 6 0 10 5 10 10 0 6 -4 10 -10 10 -5 0
-10 -4 -10 -10z"/>
<path d="M2560 2140 c0 -5 5 -10 10 -10 6 0 10 5 10 10 0 6 -4 10 -10 10 -5 0
-10 -4 -10 -10z"/>
<path d="M2520 2109 c0 -5 5 -7 10 -4 6 3 10 8 10 11 0 2 -4 4 -10 4 -5 0 -10
-5 -10 -11z"/>
<path d="M2700 2089 c0 -5 5 -7 10 -4 6 3 10 8 10 11 0 2 -4 4 -10 4 -5 0 -10
-5 -10 -11z"/>
<path d="M2830 2081 c0 -6 9 -15 20 -21 13 -7 20 -7 20 -1 0 6 -9 15 -20 21
-13 7 -20 7 -20 1z"/>
<path d="M2965 2080 c3 -5 8 -10 11 -10 2 0 4 5 4 10 0 6 -5 10 -11 10 -5 0
-7 -4 -4 -10z"/>
<path d="M2551 1968 c0 -7 4 -22 9 -33 7 -17 9 -15 9 13 1 17 -3 32 -9 32 -5
0 -10 -6 -9 -12z"/>
<path d="M174 1948 c3 -13 5 -26 5 -30 1 -5 5 -8 9 -8 5 0 9 14 9 30 0 18 -6
30 -14 30 -8 0 -11 -8 -9 -22z"/>
<path d="M2890 1960 c0 -5 5 -10 10 -10 6 0 10 -7 10 -17 0 -9 3 -14 6 -10 8
8 -5 47 -17 47 -5 0 -9 -4 -9 -10z"/>
<path d="M2360 1927 c0 -18 4 -47 9 -65 5 -17 6 -32 1 -32 -4 0 -10 -10 -13
-22 -6 -20 -4 -20 16 5 16 20 32 28 59 29 37 1 93 -26 84 -41 -3 -4 2 -8 10
-8 24 0 10 21 -32 44 -21 13 -55 23 -75 23 -34 0 -37 3 -42 33 -5 37 1 51 10
19 3 -12 9 -22 14 -22 18 0 13 17 -13 42 l-28 27 0 -32z"/>
<path d="M2611 1944 c0 -11 3 -14 6 -6 3 7 2 16 -1 19 -3 4 -6 -2 -5 -13z"/>
<path d="M2578 1925 c-3 -14 -1 -28 3 -31 5 -3 9 9 9 25 0 38 -6 40 -12 6z"/>
<path d="M2868 1940 c-7 -18 18 -45 27 -30 3 6 2 10 -4 10 -5 0 -11 8 -13 18
-3 14 -5 14 -10 2z"/>
<path d="M2466 1901 c17 -34 34 -41 34 -13 0 14 -2 15 -10 2 -8 -13 -10 -13
-10 1 0 9 -7 22 -15 29 -12 10 -12 7 1 -19z"/>
<path d="M2659 1914 c-3 -20 3 -59 9 -66 4 -4 7 8 7 27 0 30 -13 62 -16 39z"/>
<path d="M2620 1900 c0 -5 5 -10 10 -10 6 0 10 5 10 10 0 6 -4 10 -10 10 -5 0
-10 -4 -10 -10z"/>
<path d="M185 1890 c-3 -5 -1 -10 4 -10 6 0 11 5 11 10 0 6 -2 10 -4 10 -3 0
-8 -4 -11 -10z"/>
<path d="M2710 1890 c0 -5 5 -10 10 -10 6 0 10 5 10 10 0 6 -4 10 -10 10 -5 0
-10 -4 -10 -10z"/>
<path d="M2750 1889 c0 -5 5 -7 10 -4 6 3 10 8 10 11 0 2 -4 4 -10 4 -5 0 -10
-5 -10 -11z"/>
<path d="M2840 1880 c0 -11 2 -20 4 -20 2 0 6 9 9 20 3 11 1 20 -4 20 -5 0 -9
-9 -9 -20z"/>
<path d="M1215 1880 c3 -5 8 -10 11 -10 2 0 4 5 4 10 0 6 -5 10 -11 10 -5 0
-7 -4 -4 -10z"/>
<path d="M2601 1874 c0 -11 3 -14 6 -6 3 7 2 16 -1 19 -3 4 -6 -2 -5 -13z"/>
<path d="M2745 1840 c-3 -5 -2 -10 4 -10 5 0 13 5 16 10 3 6 2 10 -4 10 -5 0
-13 -4 -16 -10z"/>
<path d="M2935 1829 c-16 -10 -25 -19 -19 -19 7 0 22 9 35 20 30 24 23 24 -16
-1z"/>
<path d="M2434 1787 c3 -10 6 -23 6 -28 0 -5 5 -9 10 -9 14 0 12 13 -6 36 -14
17 -15 17 -10 1z"/>
<path d="M2550 1780 c0 -5 -7 -7 -15 -4 -12 5 -12 2 1 -25 14 -29 34 -34 34
-10 0 6 -5 7 -11 3 -9 -5 -10 1 -5 20 3 14 4 26 1 26 -3 0 -5 -4 -5 -10z"/>
<path d="M2330 1690 c14 -4 41 -8 60 -8 28 -1 31 1 15 8 -11 5 -38 8 -60 8
-34 0 -36 -1 -15 -8z"/>
<path d="M2246 1662 c-3 -5 1 -9 9 -9 8 0 12 4 9 9 -3 4 -7 8 -9 8 -2 0 -6 -4
-9 -8z"/>
<path d="M2921 1666 c10 -9 79 -14 79 -5 0 5 -19 9 -42 9 -23 0 -39 -2 -37 -4z"/>
<path d="M2795 1564 c46 -7 123 -8 118 -1 -2 4 -34 6 -71 6 -37 -1 -58 -3 -47
-5z"/>
<path d="M2348 1553 c7 -3 16 -2 19 1 4 3 -2 6 -13 5 -11 0 -14 -3 -6 -6z"/>
<path d="M2745 1540 c15 -8 6 -9 -32 -5 -48 5 -53 4 -53 -15 0 -18 6 -20 56
-20 52 0 55 1 52 22 -2 14 -11 24 -23 25 -20 3 -20 3 0 -7z"/>
<path d="M2781 1534 c0 -11 3 -14 6 -6 3 7 2 16 -1 19 -3 4 -6 -2 -5 -13z"/>
<path d="M2512 1516 c-10 -23 -9 -24 28 -28 29 -2 41 1 49 15 16 25 5 37 -33
37 -25 0 -35 -6 -44 -24z m51 7 c-7 -2 -19 -2 -25 0 -7 3 -2 5 12 5 14 0 19
-2 13 -5z m10 -20 c-7 -2 -21 -2 -30 0 -10 3 -4 5 12 5 17 0 24 -2 18 -5z"/>
<path d="M12 1398 c0 -73 3 -153 7 -178 6 -32 9 1 10 120 0 91 -3 171 -7 178
-5 6 -9 -48 -10 -120z"/>
<path d="M2467 1523 c-4 -3 -7 -13 -7 -21 0 -12 3 -12 15 -2 8 7 15 16 15 21
0 11 -14 12 -23 2z"/>
<path d="M2600 1490 c0 -5 7 -10 15 -10 8 0 15 5 15 10 0 6 -7 10 -15 10 -8 0
-15 -4 -15 -10z"/>
<path d="M2420 1465 c0 -9 5 -15 11 -13 6 2 11 8 11 13 0 5 -5 11 -11 13 -6 2
-11 -4 -11 -13z"/>
<path d="M2465 1470 c-4 -7 -3 -16 2 -21 12 -12 45 0 40 15 -5 15 -34 19 -42
6z"/>
<path d="M2530 1470 c-7 -4 -9 -13 -6 -19 10 -16 46 -14 46 3 0 17 -23 27 -40
16z"/>
<path d="M2660 1465 c-19 -23 -5 -29 60 -30 53 0 59 2 63 23 4 21 1 22 -53 22
-39 0 -62 -5 -70 -15z"/>
<path d="M2595 1460 c-8 -12 20 -24 35 -15 5 3 10 10 10 16 0 12 -37 12 -45
-1z"/>
<path d="M169 1137 c5 -5 24 -7 42 -5 33 3 33 4 -8 8 -23 3 -39 2 -34 -3z"/>
<path d="M48 1113 c29 -2 74 -2 100 0 26 2 2 3 -53 3 -55 0 -76 -1 -47 -3z"/>
<path d="M2430 1068 c0 -4 24 -7 53 -7 54 1 49 5 -15 11 -21 2 -38 0 -38 -4z"/>
<path d="M2680 1060 c-36 -4 -50 -7 -32 -8 17 -1 33 -8 33 -14 1 -7 3 -23 4
-36 3 -27 15 -43 15 -19 0 8 6 18 13 21 10 5 10 7 0 12 -11 5 -19 33 -10 34 1
1 67 3 147 7 80 3 147 7 149 10 7 5 -241 0 -319 -7z"/>
<path d="M2610 980 c0 -5 5 -10 10 -10 6 0 10 5 10 10 0 6 -4 10 -10 10 -5 0
-10 -4 -10 -10z"/>
<path d="M160 970 c-63 -4 -126 -8 -139 -9 -47 -2 -13 -11 120 -31 74 -11 147
-22 162 -25 15 -2 26 -1 23 4 -3 5 -52 14 -108 21 -146 18 -153 29 -18 30 78
0 110 3 100 10 -8 5 -17 9 -20 8 -3 -1 -57 -5 -120 -8z"/>
<path d="M745 971 c11 -5 92 -18 180 -28 l160 -17 -95 -8 c-52 -5 -105 -7
-117 -5 -13 2 -23 0 -23 -4 0 -5 -21 -9 -47 -10 -27 0 -57 -4 -68 -9 -29 -13
-18 -12 201 10 201 21 230 21 409 -6 22 -4 37 -3 33 1 -4 4 -49 13 -100 20
-84 12 -88 13 -38 14 30 1 62 6 70 11 20 13 0 13 -100 0 -49 -7 -101 -7 -150
0 -73 9 -213 26 -295 35 -30 4 -35 3 -20 -4z"/>
<path d="M2928 953 c7 -3 16 -2 19 1 4 3 -2 6 -13 5 -11 0 -14 -3 -6 -6z"/>
<path d="M815 930 c3 -5 8 -10 11 -10 2 0 4 5 4 10 0 6 -5 10 -11 10 -5 0 -7
-4 -4 -10z"/>
<path d="M2615 910 c-3 -5 1 -10 10 -10 9 0 13 5 10 10 -3 6 -8 10 -10 10 -2
0 -7 -4 -10 -10z"/>
<path d="M2965 870 c-3 -5 -1 -10 4 -10 6 0 11 5 11 10 0 6 -2 10 -4 10 -3 0
-8 -4 -11 -10z"/>
<path d="M755 850 c11 -5 99 -19 195 -30 164 -20 215 -30 159 -30 -34 0 -321
-48 -327 -55 -3 -3 21 -3 54 0 46 5 56 4 44 -5 -13 -10 -13 -11 0 -7 8 2 14 9
13 14 -1 4 67 19 150 32 147 22 155 22 254 7 57 -9 115 -15 130 -15 35 2 -107
27 -162 29 -37 2 -38 2 -13 10 14 4 55 11 90 15 35 4 70 11 78 16 9 6 -2 6
-30 2 -25 -4 -68 -7 -97 -7 -30 -1 -46 -4 -40 -9 7 -5 3 -7 -10 -4 -13 3 -26
1 -29 -5 -4 -6 -25 -8 -53 -4 -117 17 -417 56 -421 55 -3 0 4 -4 15 -9z"/>
<path d="M271 794 c0 -11 3 -14 6 -6 3 7 2 16 -1 19 -3 4 -6 -2 -5 -13z"/>
<path d="M3 794 c7 -7 226 -44 261 -44 43 0 4 10 -117 29 -139 23 -154 24
-144 15z"/>
<path d="M86 741 c-8 -12 50 -20 66 -9 7 4 11 8 8 9 -45 7 -70 7 -74 0z"/>
<path d="M180 710 c0 -5 5 -10 10 -10 6 0 10 5 10 10 0 6 -4 10 -10 10 -5 0
-10 -4 -10 -10z"/>
<path d="M1314 705 c-9 -21 -2 -26 13 -10 8 9 9 16 3 20 -6 3 -13 -1 -16 -10z"/>
<path d="M1032 682 c-21 -19 -21 -19 26 -20 33 0 41 2 27 7 -11 5 -24 6 -30 3
-5 -3 -4 2 4 11 18 23 -1 22 -27 -1z"/>
<path d="M2248 693 c6 -2 18 -2 25 0 6 3 1 5 -13 5 -14 0 -19 -2 -12 -5z"/>
<path d="M2754 658 c3 -15 26 -23 26 -8 0 6 -4 9 -9 6 -5 -4 -12 -1 -14 4 -3
6 -4 5 -3 -2z"/>
<path d="M190 649 c-158 -25 -191 -31 -187 -36 7 -6 237 26 262 37 20 9 20 9
0 8 -11 0 -45 -4 -75 -9z"/>
<path d="M190 586 c0 -9 5 -16 10 -16 6 0 10 4 10 9 0 6 -4 13 -10 16 -5 3
-10 -1 -10 -9z"/>
<path d="M964 555 c-26 -19 1 -20 36 0 23 13 23 14 4 15 -11 0 -29 -7 -40 -15z"/>
<path d="M0 553 c0 -4 71 -21 158 -37 86 -16 163 -31 171 -34 8 -3 12 -1 8 5
-4 6 -21 13 -39 16 -130 23 -266 49 -280 53 -10 3 -18 2 -18 -3z"/>
<path d="M1850 534 c-19 -8 -50 -13 -70 -11 -19 2 -27 2 -17 0 24 -6 21 -20
-5 -26 -12 -4 -19 -9 -16 -12 3 -4 20 1 37 9 18 10 46 15 68 12 21 -2 30 -1
21 1 -26 6 -22 18 10 30 15 6 23 11 17 12 -5 0 -26 -7 -45 -15z"/>
<path d="M2233 543 c-17 -6 -17 -20 0 -20 8 0 14 6 14 14 0 7 -1 13 -1 12 -1
0 -7 -3 -13 -6z"/>
<path d="M2693 527 c-2 -14 1 -17 6 -9 4 8 15 10 27 6 23 -9 17 -1 -11 14 -18
9 -21 7 -22 -11z"/>
<path d="M2870 515 c0 -8 4 -15 8 -15 5 0 9 7 9 15 0 8 -4 15 -9 15 -4 0 -8
-7 -8 -15z"/>
<path d="M1220 499 c0 -5 5 -7 10 -4 6 3 10 8 10 11 0 2 -4 4 -10 4 -5 0 -10
-5 -10 -11z"/>
<path d="M1130 469 c0 -5 5 -7 10 -4 6 3 10 8 10 11 0 2 -4 4 -10 4 -5 0 -10
-5 -10 -11z"/>
<path d="M149 443 c-13 -16 -12 -17 4 -4 16 13 21 21 13 21 -2 0 -10 -8 -17
-17z"/>
<path d="M1000 440 c0 -5 6 -10 14 -10 8 0 18 5 21 10 3 6 -3 10 -14 10 -12 0
-21 -4 -21 -10z"/>
<path d="M2120 440 c0 -5 10 -10 23 -10 18 0 19 2 7 10 -19 13 -30 13 -30 0z"/>
<path d="M1841 406 c-9 -10 -8 -15 3 -19 8 -3 16 2 19 14 6 22 -6 25 -22 5z"/>
<path d="M825 401 c6 -5 78 -21 160 -35 259 -45 291 -55 199 -58 -73 -2 -78
-3 -94 -13 -8 -5 -30 -8 -50 -6 -19 1 -46 -3 -60 -9 l-25 -10 28 3 c15 3 30 1
32 -3 2 -4 43 -6 90 -5 46 1 83 -1 80 -5 -7 -12 -126 -19 -151 -9 -15 5 -24 5
-24 -1 0 -6 -9 -10 -20 -10 -11 0 -20 -4 -20 -10 0 -14 33 -13 47 1 7 7 17 8
25 3 7 -5 23 -7 35 -6 11 2 23 -1 26 -5 3 -5 -10 -8 -29 -8 -19 1 -34 -1 -34
-5 0 -4 -23 -5 -51 -2 -39 4 -50 2 -44 -7 4 -8 17 -10 31 -7 19 5 22 3 17 -11
-5 -15 -4 -16 8 -7 8 6 35 15 61 18 26 4 50 11 53 17 4 5 41 6 92 2 56 -4 84
-3 80 4 -3 5 3 9 16 7 12 -1 36 -3 52 -3 23 -1 27 -4 15 -11 -8 -5 -10 -10 -5
-10 6 0 3 -4 -5 -10 -8 -5 -12 -12 -8 -15 3 -3 12 0 19 7 15 14 51 19 142 18
31 0 57 4 57 8 0 5 -42 8 -92 7 -51 -1 -78 0 -60 4 18 3 34 11 35 16 1 6 6 9
10 7 4 -1 43 -4 85 -7 l77 -4 -75 10 c-41 6 -77 15 -78 20 -3 6 -9 6 -17 -1
-15 -13 -185 -20 -185 -7 0 5 7 7 15 3 8 -3 15 -1 15 4 0 5 10 10 23 9 12 0
54 1 92 2 39 1 95 -2 125 -6 30 -4 53 -5 50 -2 -4 4 -51 13 -105 22 -129 20
-142 24 -124 37 10 7 6 8 -13 5 -16 -2 -28 0 -28 6 0 5 -7 4 -15 -3 -9 -7 -22
-9 -32 -5 -10 5 -40 11 -68 15 -27 4 -113 19 -190 34 -206 38 -200 37 -190 27z
m445 -91 c0 -5 -9 -14 -21 -21 -26 -13 -89 -19 -89 -8 0 5 -8 6 -17 2 -10 -3
-14 -2 -10 3 4 4 26 10 48 11 22 2 48 7 57 13 22 12 32 12 32 0z m58 -7 c-10
-2 -26 -2 -35 0 -10 3 -2 5 17 5 19 0 27 -2 18 -5z m37 -13 c-3 -5 -14 -10
-23 -10 -15 0 -15 2 -2 10 20 13 33 13 25 0z m-60 -10 c-3 -5 -13 -10 -21 -10
-8 0 -17 -7 -20 -15 -4 -8 -14 -15 -23 -15 -14 0 -14 2 -1 10 9 6 10 10 3 10
-6 0 -15 -4 -18 -10 -3 -5 -13 -10 -22 -10 -13 0 -13 3 -3 15 7 8 21 15 31 15
10 0 21 5 24 10 3 6 17 10 31 10 14 0 22 -4 19 -10z"/>
<path d="M1525 400 c-11 -4 -31 -6 -45 -4 -19 3 -20 2 -7 -4 14 -6 6 -12 -38
-26 -30 -11 -58 -16 -62 -13 -3 4 3 7 15 7 12 0 22 4 22 9 0 5 8 12 18 14 9 2
4 3 -12 1 -16 -2 -43 -4 -60 -5 -26 0 -28 -2 -11 -9 14 -6 15 -9 5 -9 -9 -1
-22 5 -28 11 -10 10 -15 10 -21 -1 -7 -10 -14 -10 -41 4 -20 10 -29 12 -25 4
6 -9 -2 -11 -36 -6 -28 5 -38 4 -29 -2 21 -13 189 -33 287 -34 46 0 77 -5 70
-9 -7 -5 1 -8 21 -8 17 0 32 5 32 11 0 5 -4 8 -9 4 -5 -3 -13 0 -17 6 -4 7
-21 9 -43 6 -20 -3 -45 -1 -56 3 -20 8 -20 9 1 9 11 1 24 4 28 9 4 4 11 7 14
7 4 1 21 8 37 17 31 18 25 23 -10 8z"/>
<path d="M215 390 c-3 -5 -1 -10 4 -10 6 0 11 5 11 10 0 6 -2 10 -4 10 -3 0
-8 -4 -11 -10z"/>
<path d="M1938 373 c7 -3 16 -2 19 1 4 3 -2 6 -13 5 -11 0 -14 -3 -6 -6z"/>
<path d="M150 350 c-6 -11 -8 -25 -5 -30 3 -6 -2 -10 -11 -10 -24 0 -136 -32
-130 -37 2 -2 91 17 197 44 107 26 186 49 177 51 -9 2 -45 -4 -79 -14 -35 -9
-74 -18 -86 -19 -12 -2 -27 -6 -34 -10 -7 -5 -10 -3 -7 6 3 8 15 14 28 14 13
0 25 7 27 15 4 12 3 12 -5 2 -10 -15 -18 -15 -44 -1 -13 7 -20 4 -28 -11z m11
-17 c-12 -20 -14 -14 -5 12 4 9 9 14 11 11 3 -2 0 -13 -6 -23z"/>
<path d="M1938 353 c7 -3 16 -2 19 1 4 3 -2 6 -13 5 -11 0 -14 -3 -6 -6z"/>
<path d="M2350 350 c-42 -9 -36 -11 55 -14 39 -1 54 -1 35 2 -29 4 -32 6 -15
12 17 7 15 8 -10 8 -16 0 -46 -4 -65 -8z"/>
<path d="M1890 340 c-9 -6 -10 -10 -3 -10 6 0 15 5 18 10 8 12 4 12 -15 0z"/>
<path d="M300 310 c-8 -5 -10 -10 -5 -10 6 0 17 5 25 10 8 5 11 10 5 10 -5 0
-17 -5 -25 -10z"/>
<path d="M1431 310 c-9 -5 -4 -7 13 -7 29 0 32 2 13 10 -8 3 -20 2 -26 -3z"/>
<path d="M1840 310 l-45 -7 42 -1 c23 -1 45 3 48 8 3 6 5 9 3 8 -2 0 -23 -4
-48 -8z"/>
<path d="M2251 309 c-14 -6 -39 -7 -55 -4 l-31 6 35 -18 c22 -11 37 -14 40 -8
7 14 63 12 68 -3 2 -7 8 -10 13 -6 15 9 10 24 -9 24 -10 0 -22 4 -27 9 -6 5
-20 5 -34 0z"/>
<path d="M2300 316 c0 -8 60 -12 72 -4 8 4 -4 8 -29 8 -24 0 -43 -2 -43 -4z"/>
<path d="M1598 303 c7 -3 16 -2 19 1 4 3 -2 6 -13 5 -11 0 -14 -3 -6 -6z"/>
<path d="M1625 290 c-3 -6 2 -13 12 -17 10 -3 21 -8 26 -10 4 -2 7 1 7 6 0 6
-9 11 -21 11 -11 0 -17 5 -14 10 3 6 4 10 1 10 -3 0 -8 -5 -11 -10z"/>
<path d="M1573 283 c9 -2 23 -2 30 0 6 3 -1 5 -18 5 -16 0 -22 -2 -12 -5z"/>
<path d="M2153 283 c9 -2 23 -2 30 0 6 3 -1 5 -18 5 -16 0 -22 -2 -12 -5z"/>
<path d="M630 255 c-6 -15 -13 -32 -16 -36 -3 -5 -1 -9 4 -9 11 0 35 60 27 68
-2 3 -9 -8 -15 -23z"/>
<path d="M1680 270 c0 -11 78 -23 116 -17 24 3 22 4 -11 6 -22 0 -55 5 -73 10
-17 5 -32 6 -32 1z"/>
<path d="M2070 270 c-13 -8 -12 -10 3 -10 20 0 23 -16 5 -23 -7 -3 1 -6 19 -6
17 -1 35 4 38 10 4 6 14 8 22 5 8 -3 12 -2 9 3 -3 5 -15 11 -27 14 -15 4 -19
2 -15 -8 3 -9 0 -12 -10 -8 -8 3 -13 12 -10 19 6 16 -12 18 -34 4z"/>
<path d="M2268 273 c6 -2 18 -2 25 0 6 3 1 5 -13 5 -14 0 -19 -2 -12 -5z"/>
<path d="M720 251 c5 -11 15 -23 21 -26 7 -5 5 -13 -4 -23 -24 -27 -24 -53 1
-69 14 -10 22 -12 22 -4 0 6 -7 14 -15 17 -17 7 -19 22 -6 43 7 11 13 11 32
-3 43 -30 43 -16 1 24 -23 23 -42 45 -42 50 0 6 -5 10 -10 10 -7 0 -7 -6 0
-19z"/>
<path d="M652 228 c2 -17 10 -34 18 -36 12 -4 13 -2 3 9 -7 8 -10 25 -6 37 3
13 1 22 -6 22 -8 0 -11 -12 -9 -32z"/>
<path d="M1625 250 c17 -4 41 -8 55 -8 l25 0 -25 8 c-14 4 -38 8 -55 8 l-30 0
30 -8z"/>
<path d="M2001 256 c2 -2 18 -6 34 -10 22 -5 26 -4 15 4 -14 9 -59 15 -49 6z"/>
<path d="M2203 253 c15 -2 39 -2 55 0 15 2 2 4 -28 4 -30 0 -43 -2 -27 -4z"/>
<path d="M2380 250 c0 -5 7 -10 16 -10 8 0 12 5 9 10 -3 6 -10 10 -16 10 -5 0
-9 -4 -9 -10z"/>
<path d="M1843 243 c9 -2 23 -2 30 0 6 3 -1 5 -18 5 -16 0 -22 -2 -12 -5z"/>
<path d="M2218 231 c-94 -8 -98 -23 -5 -19 53 2 77 7 77 16 0 6 -1 11 -2 10
-2 0 -33 -4 -70 -7z"/>
<path d="M900 220 c0 -5 -9 -10 -20 -10 -33 0 -23 -17 25 -40 39 -19 48 -20
62 -9 14 12 9 15 -38 25 -40 9 -46 12 -24 13 22 1 26 4 16 10 -11 7 -7 10 15
14 l29 4 -32 2 c-18 0 -33 -3 -33 -9z"/>
<path d="M2044 208 c-4 -7 -4 -10 1 -6 4 4 13 4 19 -1 6 -5 58 -11 116 -14 72
-4 89 -3 55 3 -27 5 -77 9 -110 10 -53 2 -56 3 -25 10 l35 7 -42 2 c-24 0 -45
-4 -49 -11z"/>
<path d="M2615 210 c-3 -6 1 -7 9 -4 18 7 21 14 7 14 -6 0 -13 -4 -16 -10z"/>
<path d="M2660 210 c0 -6 5 -8 10 -5 6 3 10 1 10 -6 0 -7 3 -9 7 -6 3 4 11 2
18 -3 8 -7 12 -5 12 3 0 8 -5 14 -11 14 -6 0 -19 4 -28 8 -11 4 -18 3 -18 -5z"/>
<path d="M553 183 c-10 -16 -23 -31 -30 -36 -7 -4 -10 -13 -8 -20 6 -15 -1
-24 -48 -65 -42 -36 -70 -43 -41 -11 13 15 3 11 -33 -12 -28 -19 -47 -36 -42
-38 6 -1 18 4 28 13 22 20 38 21 21 1 -8 -9 -9 -15 -2 -15 6 0 14 5 17 10 4 6
11 8 16 5 5 -4 9 -2 9 3 0 21 35 22 62 2 33 -24 30 -24 58 0 26 22 40 19 21
-4 -11 -13 -7 -15 26 -11 21 2 46 4 56 4 22 1 23 21 0 21 -9 0 -14 2 -11 5 11
11 57 -7 61 -23 3 -10 5 -6 6 9 1 32 38 59 81 59 18 0 29 4 25 10 -11 18 -64
11 -86 -11 -20 -20 -21 -20 -26 -1 -9 36 -40 32 -106 -11 -34 -23 -65 -45 -68
-51 -4 -5 -13 1 -20 13 -8 11 -20 21 -28 21 -10 0 -11 3 -2 14 7 9 29 13 56
12 26 0 44 3 42 9 -2 6 -18 10 -35 10 -27 0 -31 3 -26 20 4 11 10 22 14 25 4
3 12 15 19 28 8 15 20 23 34 22 35 -3 43 0 27 10 -26 17 -49 11 -67 -17z m147
-108 c10 -13 9 -15 -9 -15 -11 0 -21 5 -21 11 0 5 -11 -2 -23 -17 -17 -19 -29
-25 -42 -21 -15 6 -13 11 16 31 40 29 62 32 79 11z"/>
<path d="M1260 196 c-19 -7 -37 -21 -38 -30 -3 -14 -10 -17 -30 -13 -64 13
-154 19 -186 13 -38 -7 -72 -46 -41 -46 9 0 13 5 9 11 -4 8 0 8 15 0 11 -6 24
-23 27 -37 4 -16 19 -30 40 -39 48 -20 45 -45 -5 -45 -22 0 -52 5 -67 10 -24
9 -25 9 -14 -5 9 -11 31 -15 79 -15 59 0 67 2 67 19 0 11 -4 17 -9 14 -5 -3
-8 0 -5 7 7 21 28 24 28 5 0 -14 6 -16 43 -9 46 8 44 8 207 4 63 -1 106 -4 95
-7 -27 -7 -44 -23 -23 -23 9 0 26 9 39 20 l24 19 -102 1 c-56 0 -104 4 -107 9
-3 5 -58 8 -121 7 -63 0 -115 2 -115 5 0 4 -9 9 -20 12 -22 6 -28 27 -7 28 6
0 3 5 -8 10 -14 6 -6 7 25 2 25 -3 61 -7 80 -7 19 -1 41 -5 49 -10 10 -6 12
-6 7 3 -6 9 15 11 86 7 80 -4 85 -4 38 4 -30 5 -88 9 -128 8 -40 0 -75 2 -79
6 -3 3 24 6 60 6 38 0 67 4 67 10 0 6 9 10 21 10 11 0 18 -3 16 -7 -3 -5 36
-7 86 -5 53 2 85 7 77 12 -7 4 -35 6 -63 3 -53 -5 -143 5 -133 14 3 4 27 6 53
6 41 -1 43 0 18 6 l-30 8 35 5 c33 4 33 5 5 6 -16 0 -46 -5 -65 -12z m-182
-53 c-10 -2 -26 -2 -35 0 -10 3 -2 5 17 5 19 0 27 -2 18 -5z m92 -93 c0 -5 -4
-10 -9 -10 -6 0 -13 5 -16 10 -3 6 1 10 9 10 9 0 16 -4 16 -10z"/>
<path d="M1579 202 c-2 -6 -34 -12 -71 -13 -38 -1 -68 -6 -68 -10 0 -14 227 7
235 22 8 12 -5 11 -45 -2 -25 -9 -34 -9 -40 1 -5 8 -9 9 -11 2z"/>
<path d="M1728 183 c12 -2 30 -2 40 0 9 3 -1 5 -23 4 -22 0 -30 -2 -17 -4z"/>
<path d="M1880 180 c-22 -7 -20 -8 12 -7 20 0 34 5 32 9 -6 9 -10 9 -44 -2z"/>
<path d="M1654 165 c3 -8 0 -15 -7 -15 -8 0 -6 -4 3 -10 19 -12 33 -13 25 -1
-3 6 6 9 19 8 14 -1 25 3 25 8 0 6 -12 9 -27 8 -24 -2 -24 -2 -7 6 18 9 17 10
-9 10 -21 1 -27 -3 -22 -14z"/>
<path d="M1733 140 c-46 -29 -72 -40 -100 -39 -30 0 -34 2 -18 9 19 8 19 9 -2
9 -13 1 -23 -5 -23 -13 0 -19 69 -27 96 -10 12 7 32 11 45 8 21 -4 21 -3 4 4
-19 9 -19 9 2 20 29 16 34 15 27 -3 -5 -11 1 -15 22 -14 l29 1 -25 8 c-15 5
-18 8 -8 9 24 1 49 -10 43 -19 -3 -5 4 -8 15 -7 11 1 20 5 20 10 0 6 18 7 43
2 90 -15 153 -20 187 -14 33 6 32 7 -15 9 -42 2 -46 3 -25 10 15 5 -2 6 -44 3
-52 -5 -67 -3 -62 6 5 8 -3 10 -31 6 -51 -7 -157 10 -125 20 12 4 22 11 22 16
0 15 -13 10 -77 -31z"/>
<path d="M1936 164 c-5 -14 -4 -15 9 -4 17 14 19 20 6 20 -5 0 -12 -7 -15 -16z"/>
<path d="M590 150 c-34 -26 -5 -26 35 0 25 16 27 20 10 20 -11 0 -31 -9 -45
-20z"/>
<path d="M1514 155 c9 -10 34 -15 68 -15 34 0 48 3 39 9 -12 8 -12 10 0 13 8
3 1 3 -14 0 -59 -9 -77 -9 -77 -1 0 5 -7 9 -16 9 -14 0 -14 -2 0 -15z"/>
<path d="M2370 159 c0 -3 -12 -4 -27 -1 -16 2 -24 1 -20 -4 13 -13 80 -12 95
2 10 11 7 13 -18 11 -16 -1 -30 -5 -30 -8z"/>
<path d="M2827 156 c-8 -19 19 -28 33 -12 8 10 7 15 -6 20 -21 8 -21 8 -27 -8z"/>
<path d="M470 145 c-9 -11 -10 -19 -3 -26 7 -7 16 -2 27 15 13 21 14 26 2 26
-7 0 -19 -7 -26 -15z"/>
<path d="M775 150 c-3 -5 -2 -17 3 -26 8 -14 10 -14 15 5 5 22 -7 38 -18 21z"/>
<path d="M1860 152 c0 -5 7 -9 15 -9 8 0 15 4 15 9 0 4 -7 8 -15 8 -8 0 -15
-4 -15 -8z"/>
<path d="M1378 133 c12 -2 32 -2 45 0 12 2 2 4 -23 4 -25 0 -35 -2 -22 -4z"/>
<path d="M1968 133 c7 -3 16 -2 19 1 4 3 -2 6 -13 5 -11 0 -14 -3 -6 -6z"/>
<path d="M2118 133 c7 -3 16 -2 19 1 4 3 -2 6 -13 5 -11 0 -14 -3 -6 -6z"/>
<path d="M2890 130 c0 -5 5 -10 10 -10 6 0 10 5 10 10 0 6 -4 10 -10 10 -5 0
-10 -4 -10 -10z"/>
<path d="M2155 120 c-3 -5 -2 -10 4 -10 5 0 13 5 16 10 3 6 2 10 -4 10 -5 0
-13 -4 -16 -10z"/>
<path d="M2802 121 c-11 -7 -11 -9 0 -13 18 -7 39 2 32 13 -6 11 -15 11 -32 0z"/>
<path d="M2856 121 c-3 -5 1 -11 9 -14 9 -4 12 -1 8 9 -6 16 -10 17 -17 5z"/>
<path d="M1403 113 c15 -2 37 -2 50 0 12 2 0 4 -28 4 -27 0 -38 -2 -22 -4z"/>
<path d="M1525 110 l-50 -7 53 -1 c29 -1 52 2 52 8 0 6 -1 9 -2 8 -2 0 -25 -4
-53 -8z"/>
<path d="M1648 113 c7 -3 16 -2 19 1 4 3 -2 6 -13 5 -11 0 -14 -3 -6 -6z"/>
<path d="M2215 110 c-18 -8 -17 -9 8 -9 16 -1 26 3 22 9 -3 6 -7 10 -8 9 -1 0
-11 -4 -22 -9z"/>
<path d="M450 100 c0 -5 5 -10 11 -10 5 0 7 5 4 10 -3 6 -8 10 -11 10 -2 0 -4
-4 -4 -10z"/>
<path d="M1065 90 c30 -8 232 -13 224 -6 -2 2 -60 6 -129 9 -70 3 -112 2 -95
-3z"/>
<path d="M1319 89 c-9 -5 16 -9 68 -9 45 0 84 -3 86 -8 3 -4 34 -7 70 -7 36 0
63 -3 61 -7 -9 -13 23 -9 34 5 9 10 -1 13 -46 15 -31 2 -70 5 -87 7 -66 10
-172 13 -186 4z"/>
<path d="M1888 93 c6 -2 18 -2 25 0 6 3 1 5 -13 5 -14 0 -19 -2 -12 -5z"/>
<path d="M2140 90 l-25 -8 28 -1 c15 -1 27 4 27 9 0 6 -1 10 -2 9 -2 -1 -14
-5 -28 -9z"/>
<path d="M1718 83 c7 -3 16 -2 19 1 4 3 -2 6 -13 5 -11 0 -14 -3 -6 -6z"/>
<path d="M2008 83 c7 -3 16 -2 19 1 4 3 -2 6 -13 5 -11 0 -14 -3 -6 -6z"/>
<path d="M1393 63 c15 -2 39 -2 55 0 15 2 2 4 -28 4 -30 0 -43 -2 -27 -4z"/>
<path d="M1660 50 c0 -5 5 -10 11 -10 5 0 7 5 4 10 -3 6 -8 10 -11 10 -2 0 -4
-4 -4 -10z"/>
<path d="M1552 28 c-18 -11 -31 -23 -28 -25 3 -3 20 4 38 14 25 15 41 18 66
13 19 -5 30 -4 25 0 -20 18 -69 17 -101 -2z"/>
<path d="M2325 40 c-3 -5 -1 -10 4 -10 6 0 11 5 11 10 0 6 -2 10 -4 10 -3 0
-8 -4 -11 -10z"/>
<path d="M739 24 c-12 -15 -11 -16 11 -8 14 4 35 8 47 7 13 0 20 3 17 8 -9 15
-61 10 -75 -7z"/>
<path d="M1215 22 c12 -14 105 -23 105 -11 0 4 -12 8 -27 8 -16 -1 -41 2 -58
6 -22 6 -27 4 -20 -3z"/>
<path d="M470 10 c8 -5 20 -10 25 -10 6 0 3 5 -5 10 -8 5 -19 10 -25 10 -5 0
-3 -5 5 -10z"/>
<path d="M1593 13 c9 -2 23 -2 30 0 6 3 -1 5 -18 5 -16 0 -22 -2 -12 -5z"/>
<path d="M1663 3 c9 -2 25 -2 35 0 9 3 1 5 -18 5 -19 0 -27 -2 -17 -5z"/>
</g>
</svg>
